M48
; DRILL file {KiCad 6.0.0-d3dd2cf0fa~116~ubuntu20.04.1} date Sun 13 Feb 2022 01:33:08 CET
; FORMAT={-:-/ absolute / inch / decimal}
; #@! TF.CreationDate,2022-02-13T01:33:08+01:00
; #@! TF.GenerationSoftware,Kicad,Pcbnew,6.0.0-d3dd2cf0fa~116~ubuntu20.04.1
; #@! TF.FileFunction,Plated,1,2,PTH
FMAT,2
INCH
; #@! TA.AperFunction,Plated,PTH,ViaDrill
T1C0.0157
; #@! TA.AperFunction,Plated,PTH,ComponentDrill
T2C0.0394
; #@! TA.AperFunction,Plated,PTH,ComponentDrill
T3C0.0433
%
G90
G05
T1
X4.8705Y-5.4436
X4.8754Y-4.205
X4.9509Y-5.1767
X4.996Y-5.3568
X5.0153Y-4.9793
X5.2935Y-5.4161
X5.528Y-4.2563
X5.95Y-4.5
X6.153Y-4.7931
X6.2067Y-4.8517
X6.2461Y-5.4323
X6.2693Y-4.3154
X6.3806Y-4.193
X6.5935Y-5.2648
X6.6004Y-5.3461
X6.6368Y-4.7407
X6.64Y-3.2787
X6.7289Y-3.3939
X6.7453Y-4.2579
X6.9702Y-3.3546
X7.0083Y-4.5193
X7.1476Y-4.9773
X7.2878Y-3.7544
X7.3417Y-5.4185
X7.3624Y-4.7682
X7.406Y-5.4714
X7.48Y-4.9895
T2
X4.55Y-3.3
X4.65Y-3.3
X4.7222Y-3.7488
X4.7222Y-3.8488
X4.7222Y-3.9488
X4.7222Y-4.0988
X4.7222Y-4.1988
X4.7222Y-4.2988
X4.7222Y-4.4488
X4.7222Y-4.5488
X4.7222Y-4.6488
X4.7222Y-4.7988
X4.7222Y-4.8988
X4.7222Y-4.9988
X4.7222Y-5.1482
X4.7222Y-5.2482
X4.7222Y-5.3482
X4.75Y-3.3
X4.95Y-3.3
X5.05Y-3.3
X5.15Y-3.3
X5.3Y-3.2
X5.3Y-3.3
X5.3Y-3.4
X5.3Y-3.5
X5.3Y-3.6
X5.3Y-3.7
X5.3Y-3.8
X5.3Y-3.9
X5.3Y-4.0
X5.3Y-4.1
X5.3Y-4.2
X5.3Y-4.3
X5.3Y-4.4
X5.3Y-4.5
X5.3Y-4.6
X5.3Y-4.7
X5.3Y-4.8
X5.3Y-4.9
X5.3Y-5.0
X5.3Y-5.1
X5.4Y-3.2
X5.4Y-3.3
X5.4Y-3.4
X5.4Y-3.5
X5.4Y-3.6
X5.4Y-3.7
X5.4Y-3.8
X5.4Y-3.9
X5.4Y-4.0
X5.4Y-4.1
X5.4Y-4.2
X5.4Y-4.3
X5.4Y-4.4
X5.4Y-4.5
X5.4Y-4.6
X5.4Y-4.7
X5.4Y-4.8
X5.4Y-4.9
X5.4Y-5.0
X5.4Y-5.1
X5.65Y-4.35
X5.6504Y-4.5992
X5.6504Y-4.6992
X5.7Y-3.3
X5.75Y-4.35
X5.7504Y-4.5992
X5.7504Y-4.6992
X5.8Y-3.3
X5.85Y-4.35
X5.8504Y-4.5992
X5.8504Y-4.6992
X5.9Y-3.3
X5.9Y-5.0516
X5.9Y-5.1516
X5.95Y-4.35
X5.9504Y-4.5992
X5.9504Y-4.6992
X6.0Y-5.0516
X6.0Y-5.1516
X6.1Y-5.0516
X6.1Y-5.1516
X6.1994Y-5.375
X6.2Y-5.0516
X6.2Y-5.1516
X6.2994Y-5.375
X6.3Y-3.3
X6.3Y-5.0516
X6.3Y-5.1516
X6.3994Y-5.375
X6.4Y-3.3
X6.4Y-5.0516
X6.4Y-5.1516
X6.5Y-3.3
X6.599Y-5.0508
X6.599Y-5.1508
X6.8Y-3.3
X6.8Y-5.0508
X6.8Y-5.1508
X6.9Y-3.3
X6.9Y-5.0508
X6.9Y-5.1508
X7.0Y-3.3
X7.0Y-5.0508
X7.0Y-5.1508
X7.05Y-3.6
X7.05Y-3.7
X7.05Y-3.8
X7.05Y-3.9
X7.05Y-4.0
X7.05Y-4.1
X7.1Y-5.0508
X7.1Y-5.1508
X7.2Y-5.0508
X7.2Y-5.1508
X7.3Y-5.0508
X7.3Y-5.1508
X7.35Y-2.95
X7.35Y-3.05
X7.35Y-3.15
X7.35Y-3.25
X7.35Y-3.35
X7.35Y-3.6244
X7.35Y-3.7244
X7.35Y-3.8244
X7.35Y-4.0994
X7.35Y-4.1994
X7.35Y-4.2994
X7.45Y-5.3
X7.6Y-4.55
X7.7Y-4.55
X7.725Y-4.774
X7.725Y-4.874
X7.725Y-4.974
X7.725Y-5.074
X7.725Y-5.174
X7.725Y-5.274
X7.7498Y-5.425
X7.8Y-4.55
X7.825Y-4.774
X7.825Y-4.874
X7.825Y-4.974
X7.825Y-5.074
X7.825Y-5.174
X7.825Y-5.274
X7.8498Y-5.425
X7.9Y-4.55
X8.0Y-4.55
X8.1Y-4.55
T3
X6.2736Y-4.5618
X6.2736Y-4.739
X6.5295Y-4.5618
X6.5295Y-4.739
X6.8787Y-4.5728
X6.8787Y-4.75
X7.1346Y-4.5728
X7.1346Y-4.75
T0
M30
