%FSLAX45Y45*%
G04 Gerber Fmt 4.5, Leading zero omitted, Abs format (unit mm)*
G04 Created by KiCad (PCBNEW 6.0.0-d3dd2cf0fa~116~ubuntu20.04.1) date 2022-02-28 23:19:30*
%MOMM*%
%LPD*%
G01*
G04 APERTURE LIST*
%TA.AperFunction,Profile*%
%ADD10C,0.010000*%
%TD*%
%ADD11C,0.200000*%
%ADD12C,0.040000*%
%ADD13C,0.100000*%
%ADD14C,0.110000*%
G04 APERTURE END LIST*
D10*
X20872500Y-4494970D02*
X20872500Y-14493875D01*
X14033500Y-4494970D02*
X20872500Y-4494970D01*
X10875000Y-14493875D02*
X20872500Y-14493875D01*
X14033500Y-7293870D02*
X14033500Y-4494970D01*
X10875000Y-14493875D02*
X10875000Y-7293870D01*
X10875000Y-7293870D02*
X14033500Y-7293870D01*
D11*
D12*
X11791000Y-9187500D02*
X11831000Y-9227500D01*
X11831000Y-9187500D02*
X11791000Y-9227500D01*
X12451400Y-10775000D02*
X12491400Y-10815000D01*
X12491400Y-10775000D02*
X12451400Y-10815000D01*
X12667300Y-10978200D02*
X12707300Y-11018200D01*
X12707300Y-10978200D02*
X12667300Y-11018200D01*
X12692700Y-11143300D02*
X12732700Y-11183300D01*
X12732700Y-11143300D02*
X12692700Y-11183300D01*
X12718100Y-13454700D02*
X12758100Y-13494700D01*
X12758100Y-13454700D02*
X12718100Y-13494700D01*
X12758740Y-13602020D02*
X12798740Y-13642020D01*
X12798740Y-13602020D02*
X12758740Y-13642020D01*
X12758741Y-13702290D02*
X12798741Y-13742290D01*
X12798741Y-13702290D02*
X12758741Y-13742290D01*
X12807000Y-7781230D02*
X12847000Y-7821230D01*
X12847000Y-7781230D02*
X12807000Y-7821230D01*
X12908600Y-13772200D02*
X12948600Y-13812200D01*
X12948600Y-13772200D02*
X12908600Y-13812200D01*
X12997500Y-13594400D02*
X13037500Y-13634400D01*
X13037500Y-13594400D02*
X12997500Y-13634400D01*
X13632500Y-13695278D02*
X13672500Y-13735278D01*
X13672500Y-13695278D02*
X13632500Y-13735278D01*
X14077000Y-11918000D02*
X14117000Y-11958000D01*
X14117000Y-11918000D02*
X14077000Y-11958000D01*
X14140500Y-7936450D02*
X14180500Y-7976450D01*
X14180500Y-7936450D02*
X14140500Y-7976450D01*
X14359083Y-12798756D02*
X14399083Y-12838756D01*
X14399083Y-12798756D02*
X14359083Y-12838756D01*
X14394500Y-8362000D02*
X14434500Y-8402000D01*
X14434500Y-8362000D02*
X14394500Y-8402000D01*
X14431853Y-12697780D02*
X14471853Y-12737780D01*
X14471853Y-12697780D02*
X14431853Y-12737780D01*
X14839000Y-8806500D02*
X14879000Y-8846500D01*
X14879000Y-8806500D02*
X14839000Y-8846500D01*
X15029500Y-11918000D02*
X15069500Y-11958000D01*
X15069500Y-11918000D02*
X15029500Y-11958000D01*
X15581031Y-10628031D02*
X15621031Y-10668031D01*
X15621031Y-10628031D02*
X15581031Y-10668031D01*
X16032800Y-12362500D02*
X16072800Y-12402500D01*
X16072800Y-12362500D02*
X16032800Y-12402500D01*
X16042029Y-13661371D02*
X16082029Y-13701371D01*
X16082029Y-13661371D02*
X16042029Y-13701371D01*
X16553500Y-7854000D02*
X16593500Y-7894000D01*
X16593500Y-7854000D02*
X16553500Y-7894000D01*
X16744000Y-11355770D02*
X16784000Y-11395770D01*
X16784000Y-11355770D02*
X16744000Y-11395770D01*
X16751006Y-10488594D02*
X16791006Y-10528594D01*
X16791006Y-10488594D02*
X16751006Y-10528594D01*
X16782100Y-13480100D02*
X16822100Y-13520100D01*
X16822100Y-13480100D02*
X16782100Y-13520100D01*
X16934500Y-8298500D02*
X16974500Y-8338500D01*
X16974500Y-8298500D02*
X16934500Y-8338500D01*
X16998000Y-7854000D02*
X17038000Y-7894000D01*
X17038000Y-7854000D02*
X16998000Y-7894000D01*
X17023400Y-10419400D02*
X17063400Y-10459400D01*
X17063400Y-10419400D02*
X17023400Y-10459400D01*
X17023400Y-11473500D02*
X17063400Y-11513500D01*
X17063400Y-11473500D02*
X17023400Y-11513500D01*
X17226600Y-13670600D02*
X17266600Y-13710600D01*
X17266600Y-13670600D02*
X17226600Y-13710600D01*
X18699800Y-11460800D02*
X18739800Y-11500800D01*
X18739800Y-11460800D02*
X18699800Y-11500800D01*
X18852200Y-12426000D02*
X18892200Y-12466000D01*
X18892200Y-12426000D02*
X18852200Y-12466000D01*
X18966500Y-11384600D02*
X19006500Y-11424600D01*
X19006500Y-11384600D02*
X18966500Y-11424600D01*
X19309400Y-9033314D02*
X19349400Y-9073314D01*
X19349400Y-9033314D02*
X19309400Y-9073314D01*
X19944400Y-12718100D02*
X19984400Y-12758100D01*
X19984400Y-12718100D02*
X19944400Y-12758100D01*
D13*
X11607000Y-8382000D02*
G75*
G03*
X11607000Y-8382000I-50000J0D01*
G01*
X11861000Y-8382000D02*
G75*
G03*
X11861000Y-8382000I-50000J0D01*
G01*
X12044500Y-9422000D02*
G75*
G03*
X12044500Y-9422000I-50000J0D01*
G01*
X12044500Y-9676000D02*
G75*
G03*
X12044500Y-9676000I-50000J0D01*
G01*
X12044500Y-9930000D02*
G75*
G03*
X12044500Y-9930000I-50000J0D01*
G01*
X12044500Y-10336000D02*
G75*
G03*
X12044500Y-10336000I-50000J0D01*
G01*
X12044500Y-10590000D02*
G75*
G03*
X12044500Y-10590000I-50000J0D01*
G01*
X12044500Y-10844000D02*
G75*
G03*
X12044500Y-10844000I-50000J0D01*
G01*
X12044500Y-11250000D02*
G75*
G03*
X12044500Y-11250000I-50000J0D01*
G01*
X12044500Y-11504000D02*
G75*
G03*
X12044500Y-11504000I-50000J0D01*
G01*
X12044500Y-11758000D02*
G75*
G03*
X12044500Y-11758000I-50000J0D01*
G01*
X12044500Y-12164000D02*
G75*
G03*
X12044500Y-12164000I-50000J0D01*
G01*
X12044500Y-12418000D02*
G75*
G03*
X12044500Y-12418000I-50000J0D01*
G01*
X12044500Y-12672000D02*
G75*
G03*
X12044500Y-12672000I-50000J0D01*
G01*
X12044500Y-13076500D02*
G75*
G03*
X12044500Y-13076500I-50000J0D01*
G01*
X12044500Y-13330500D02*
G75*
G03*
X12044500Y-13330500I-50000J0D01*
G01*
X12044500Y-13584500D02*
G75*
G03*
X12044500Y-13584500I-50000J0D01*
G01*
X12115000Y-8382000D02*
G75*
G03*
X12115000Y-8382000I-50000J0D01*
G01*
X12623000Y-8382000D02*
G75*
G03*
X12623000Y-8382000I-50000J0D01*
G01*
X12877000Y-8382000D02*
G75*
G03*
X12877000Y-8382000I-50000J0D01*
G01*
X13131000Y-8382000D02*
G75*
G03*
X13131000Y-8382000I-50000J0D01*
G01*
X13512000Y-8128000D02*
G75*
G03*
X13512000Y-8128000I-50000J0D01*
G01*
X13512000Y-8382000D02*
G75*
G03*
X13512000Y-8382000I-50000J0D01*
G01*
X13512000Y-8636000D02*
G75*
G03*
X13512000Y-8636000I-50000J0D01*
G01*
X13512000Y-8890000D02*
G75*
G03*
X13512000Y-8890000I-50000J0D01*
G01*
X13512000Y-9144000D02*
G75*
G03*
X13512000Y-9144000I-50000J0D01*
G01*
X13512000Y-9398000D02*
G75*
G03*
X13512000Y-9398000I-50000J0D01*
G01*
X13512000Y-9652000D02*
G75*
G03*
X13512000Y-9652000I-50000J0D01*
G01*
X13512000Y-9906000D02*
G75*
G03*
X13512000Y-9906000I-50000J0D01*
G01*
X13512000Y-10160000D02*
G75*
G03*
X13512000Y-10160000I-50000J0D01*
G01*
X13512000Y-10414000D02*
G75*
G03*
X13512000Y-10414000I-50000J0D01*
G01*
X13512000Y-10668000D02*
G75*
G03*
X13512000Y-10668000I-50000J0D01*
G01*
X13512000Y-10922000D02*
G75*
G03*
X13512000Y-10922000I-50000J0D01*
G01*
X13512000Y-11176000D02*
G75*
G03*
X13512000Y-11176000I-50000J0D01*
G01*
X13512000Y-11430000D02*
G75*
G03*
X13512000Y-11430000I-50000J0D01*
G01*
X13512000Y-11684000D02*
G75*
G03*
X13512000Y-11684000I-50000J0D01*
G01*
X13512000Y-11938000D02*
G75*
G03*
X13512000Y-11938000I-50000J0D01*
G01*
X13512000Y-12192000D02*
G75*
G03*
X13512000Y-12192000I-50000J0D01*
G01*
X13512000Y-12446000D02*
G75*
G03*
X13512000Y-12446000I-50000J0D01*
G01*
X13512000Y-12700000D02*
G75*
G03*
X13512000Y-12700000I-50000J0D01*
G01*
X13512000Y-12954000D02*
G75*
G03*
X13512000Y-12954000I-50000J0D01*
G01*
X13766000Y-8128000D02*
G75*
G03*
X13766000Y-8128000I-50000J0D01*
G01*
X13766000Y-8382000D02*
G75*
G03*
X13766000Y-8382000I-50000J0D01*
G01*
X13766000Y-8636000D02*
G75*
G03*
X13766000Y-8636000I-50000J0D01*
G01*
X13766000Y-8890000D02*
G75*
G03*
X13766000Y-8890000I-50000J0D01*
G01*
X13766000Y-9144000D02*
G75*
G03*
X13766000Y-9144000I-50000J0D01*
G01*
X13766000Y-9398000D02*
G75*
G03*
X13766000Y-9398000I-50000J0D01*
G01*
X13766000Y-9652000D02*
G75*
G03*
X13766000Y-9652000I-50000J0D01*
G01*
X13766000Y-9906000D02*
G75*
G03*
X13766000Y-9906000I-50000J0D01*
G01*
X13766000Y-10160000D02*
G75*
G03*
X13766000Y-10160000I-50000J0D01*
G01*
X13766000Y-10414000D02*
G75*
G03*
X13766000Y-10414000I-50000J0D01*
G01*
X13766000Y-10668000D02*
G75*
G03*
X13766000Y-10668000I-50000J0D01*
G01*
X13766000Y-10922000D02*
G75*
G03*
X13766000Y-10922000I-50000J0D01*
G01*
X13766000Y-11176000D02*
G75*
G03*
X13766000Y-11176000I-50000J0D01*
G01*
X13766000Y-11430000D02*
G75*
G03*
X13766000Y-11430000I-50000J0D01*
G01*
X13766000Y-11684000D02*
G75*
G03*
X13766000Y-11684000I-50000J0D01*
G01*
X13766000Y-11938000D02*
G75*
G03*
X13766000Y-11938000I-50000J0D01*
G01*
X13766000Y-12192000D02*
G75*
G03*
X13766000Y-12192000I-50000J0D01*
G01*
X13766000Y-12446000D02*
G75*
G03*
X13766000Y-12446000I-50000J0D01*
G01*
X13766000Y-12700000D02*
G75*
G03*
X13766000Y-12700000I-50000J0D01*
G01*
X13766000Y-12954000D02*
G75*
G03*
X13766000Y-12954000I-50000J0D01*
G01*
X14337500Y-9842500D02*
G75*
G03*
X14337500Y-9842500I-50000J0D01*
G01*
X14337500Y-10096500D02*
G75*
G03*
X14337500Y-10096500I-50000J0D01*
G01*
X14337500Y-10350500D02*
G75*
G03*
X14337500Y-10350500I-50000J0D01*
G01*
X14337500Y-10604500D02*
G75*
G03*
X14337500Y-10604500I-50000J0D01*
G01*
X14591500Y-5588000D02*
G75*
G03*
X14591500Y-5588000I-50000J0D01*
G01*
X14845500Y-5588000D02*
G75*
G03*
X14845500Y-5588000I-50000J0D01*
G01*
X15099500Y-5588000D02*
G75*
G03*
X15099500Y-5588000I-50000J0D01*
G01*
X15163000Y-6540500D02*
G75*
G03*
X15163000Y-6540500I-50000J0D01*
G01*
X15163000Y-6794500D02*
G75*
G03*
X15163000Y-6794500I-50000J0D01*
G01*
X15163000Y-7048500D02*
G75*
G03*
X15163000Y-7048500I-50000J0D01*
G01*
X15480500Y-12636500D02*
G75*
G03*
X15480500Y-12636500I-50000J0D01*
G01*
X15480500Y-12890500D02*
G75*
G03*
X15480500Y-12890500I-50000J0D01*
G01*
X15734500Y-12636500D02*
G75*
G03*
X15734500Y-12636500I-50000J0D01*
G01*
X15734500Y-12890500D02*
G75*
G03*
X15734500Y-12890500I-50000J0D01*
G01*
X15988500Y-12636500D02*
G75*
G03*
X15988500Y-12636500I-50000J0D01*
G01*
X15988500Y-12890500D02*
G75*
G03*
X15988500Y-12890500I-50000J0D01*
G01*
X16052000Y-5588000D02*
G75*
G03*
X16052000Y-5588000I-50000J0D01*
G01*
X16242500Y-12636500D02*
G75*
G03*
X16242500Y-12636500I-50000J0D01*
G01*
X16242500Y-12890500D02*
G75*
G03*
X16242500Y-12890500I-50000J0D01*
G01*
X16306000Y-5588000D02*
G75*
G03*
X16306000Y-5588000I-50000J0D01*
G01*
X16496500Y-6350000D02*
G75*
G03*
X16496500Y-6350000I-50000J0D01*
G01*
X16496500Y-6604000D02*
G75*
G03*
X16496500Y-6604000I-50000J0D01*
G01*
X16496500Y-6858000D02*
G75*
G03*
X16496500Y-6858000I-50000J0D01*
G01*
X16496500Y-7112000D02*
G75*
G03*
X16496500Y-7112000I-50000J0D01*
G01*
X16496500Y-7366000D02*
G75*
G03*
X16496500Y-7366000I-50000J0D01*
G01*
X16496500Y-7620000D02*
G75*
G03*
X16496500Y-7620000I-50000J0D01*
G01*
X16496500Y-12636500D02*
G75*
G03*
X16496500Y-12636500I-50000J0D01*
G01*
X16496500Y-12890500D02*
G75*
G03*
X16496500Y-12890500I-50000J0D01*
G01*
X16750500Y-12636500D02*
G75*
G03*
X16750500Y-12636500I-50000J0D01*
G01*
X16750500Y-12890500D02*
G75*
G03*
X16750500Y-12890500I-50000J0D01*
G01*
X17256000Y-12634500D02*
G75*
G03*
X17256000Y-12634500I-50000J0D01*
G01*
X17256000Y-12888500D02*
G75*
G03*
X17256000Y-12888500I-50000J0D01*
G01*
X17766500Y-12634500D02*
G75*
G03*
X17766500Y-12634500I-50000J0D01*
G01*
X17766500Y-12888500D02*
G75*
G03*
X17766500Y-12888500I-50000J0D01*
G01*
X18020500Y-12634500D02*
G75*
G03*
X18020500Y-12634500I-50000J0D01*
G01*
X18020500Y-12888500D02*
G75*
G03*
X18020500Y-12888500I-50000J0D01*
G01*
X18274500Y-12634500D02*
G75*
G03*
X18274500Y-12634500I-50000J0D01*
G01*
X18274500Y-12888500D02*
G75*
G03*
X18274500Y-12888500I-50000J0D01*
G01*
X18401500Y-7874000D02*
G75*
G03*
X18401500Y-7874000I-50000J0D01*
G01*
X18528500Y-12634500D02*
G75*
G03*
X18528500Y-12634500I-50000J0D01*
G01*
X18528500Y-12888500D02*
G75*
G03*
X18528500Y-12888500I-50000J0D01*
G01*
X18655500Y-7874000D02*
G75*
G03*
X18655500Y-7874000I-50000J0D01*
G01*
X18782500Y-10287000D02*
G75*
G03*
X18782500Y-10287000I-50000J0D01*
G01*
X18782500Y-12634500D02*
G75*
G03*
X18782500Y-12634500I-50000J0D01*
G01*
X18782500Y-12888500D02*
G75*
G03*
X18782500Y-12888500I-50000J0D01*
G01*
X18909500Y-7874000D02*
G75*
G03*
X18909500Y-7874000I-50000J0D01*
G01*
X19036500Y-10287000D02*
G75*
G03*
X19036500Y-10287000I-50000J0D01*
G01*
X19036500Y-12634500D02*
G75*
G03*
X19036500Y-12634500I-50000J0D01*
G01*
X19036500Y-12888500D02*
G75*
G03*
X19036500Y-12888500I-50000J0D01*
G01*
X19036500Y-13398500D02*
G75*
G03*
X19036500Y-13398500I-50000J0D01*
G01*
X19163500Y-7874000D02*
G75*
G03*
X19163500Y-7874000I-50000J0D01*
G01*
X19417500Y-7874000D02*
G75*
G03*
X19417500Y-7874000I-50000J0D01*
G01*
X19671500Y-7874000D02*
G75*
G03*
X19671500Y-7874000I-50000J0D01*
G01*
X19671500Y-8509000D02*
G75*
G03*
X19671500Y-8509000I-50000J0D01*
G01*
X19671500Y-8763000D02*
G75*
G03*
X19671500Y-8763000I-50000J0D01*
G01*
X19671500Y-9017000D02*
G75*
G03*
X19671500Y-9017000I-50000J0D01*
G01*
X19671500Y-9271000D02*
G75*
G03*
X19671500Y-9271000I-50000J0D01*
G01*
X19671500Y-9525000D02*
G75*
G03*
X19671500Y-9525000I-50000J0D01*
G01*
X19671500Y-9779000D02*
G75*
G03*
X19671500Y-9779000I-50000J0D01*
G01*
X19671500Y-10287000D02*
G75*
G03*
X19671500Y-10287000I-50000J0D01*
G01*
X19671500Y-10795000D02*
G75*
G03*
X19671500Y-10795000I-50000J0D01*
G01*
X19671500Y-11049000D02*
G75*
G03*
X19671500Y-11049000I-50000J0D01*
G01*
X19671500Y-11303000D02*
G75*
G03*
X19671500Y-11303000I-50000J0D01*
G01*
X19671500Y-11557000D02*
G75*
G03*
X19671500Y-11557000I-50000J0D01*
G01*
X19671500Y-11811000D02*
G75*
G03*
X19671500Y-11811000I-50000J0D01*
G01*
X19671500Y-12065000D02*
G75*
G03*
X19671500Y-12065000I-50000J0D01*
G01*
X19925500Y-8509000D02*
G75*
G03*
X19925500Y-8509000I-50000J0D01*
G01*
X19925500Y-8763000D02*
G75*
G03*
X19925500Y-8763000I-50000J0D01*
G01*
X19925500Y-9017000D02*
G75*
G03*
X19925500Y-9017000I-50000J0D01*
G01*
X19925500Y-9271000D02*
G75*
G03*
X19925500Y-9271000I-50000J0D01*
G01*
X19925500Y-9525000D02*
G75*
G03*
X19925500Y-9525000I-50000J0D01*
G01*
X19925500Y-9779000D02*
G75*
G03*
X19925500Y-9779000I-50000J0D01*
G01*
X19925500Y-10287000D02*
G75*
G03*
X19925500Y-10287000I-50000J0D01*
G01*
X19925500Y-10795000D02*
G75*
G03*
X19925500Y-10795000I-50000J0D01*
G01*
X19925500Y-11049000D02*
G75*
G03*
X19925500Y-11049000I-50000J0D01*
G01*
X19925500Y-11303000D02*
G75*
G03*
X19925500Y-11303000I-50000J0D01*
G01*
X19925500Y-11557000D02*
G75*
G03*
X19925500Y-11557000I-50000J0D01*
G01*
X19925500Y-11811000D02*
G75*
G03*
X19925500Y-11811000I-50000J0D01*
G01*
X19925500Y-12065000D02*
G75*
G03*
X19925500Y-12065000I-50000J0D01*
G01*
X20686720Y-6540500D02*
G75*
G03*
X20686720Y-6540500I-50000J0D01*
G01*
X20686720Y-6794500D02*
G75*
G03*
X20686720Y-6794500I-50000J0D01*
G01*
X20686720Y-7048500D02*
G75*
G03*
X20686720Y-7048500I-50000J0D01*
G01*
X20686720Y-7302500D02*
G75*
G03*
X20686720Y-7302500I-50000J0D01*
G01*
X20686720Y-7556500D02*
G75*
G03*
X20686720Y-7556500I-50000J0D01*
G01*
X20687500Y-12763500D02*
G75*
G03*
X20687500Y-12763500I-50000J0D01*
G01*
X20687500Y-13017500D02*
G75*
G03*
X20687500Y-13017500I-50000J0D01*
G01*
X20687500Y-13271500D02*
G75*
G03*
X20687500Y-13271500I-50000J0D01*
G01*
D14*
X17192900Y-4925500D02*
X17192900Y-5035500D01*
X17137900Y-4980500D02*
X17247900Y-4980500D01*
X17192900Y-5575500D02*
X17192900Y-5685500D01*
X17137900Y-5630500D02*
X17247900Y-5630500D01*
X17192900Y-6676000D02*
X17192900Y-6786000D01*
X17137900Y-6731000D02*
X17247900Y-6731000D01*
X17192900Y-7326000D02*
X17192900Y-7436000D01*
X17137900Y-7381000D02*
X17247900Y-7381000D01*
X17642900Y-4925500D02*
X17642900Y-5035500D01*
X17587900Y-4980500D02*
X17697900Y-4980500D01*
X17642900Y-5575500D02*
X17642900Y-5685500D01*
X17587900Y-5630500D02*
X17697900Y-5630500D01*
X17642900Y-6676000D02*
X17642900Y-6786000D01*
X17587900Y-6731000D02*
X17697900Y-6731000D01*
X17642900Y-7326000D02*
X17642900Y-7436000D01*
X17587900Y-7381000D02*
X17697900Y-7381000D01*
D11*
X11132119Y-14804851D02*
X11132119Y-14604851D01*
X11179738Y-14604851D01*
X11208309Y-14614375D01*
X11227357Y-14633423D01*
X11236881Y-14652470D01*
X11246405Y-14690565D01*
X11246405Y-14719137D01*
X11236881Y-14757232D01*
X11227357Y-14776280D01*
X11208309Y-14795327D01*
X11179738Y-14804851D01*
X11132119Y-14804851D01*
X11332119Y-14804851D02*
X11332119Y-14671518D01*
X11332119Y-14709613D02*
X11341643Y-14690565D01*
X11351167Y-14681042D01*
X11370214Y-14671518D01*
X11389262Y-14671518D01*
X11455928Y-14804851D02*
X11455928Y-14671518D01*
X11455928Y-14604851D02*
X11446405Y-14614375D01*
X11455928Y-14623899D01*
X11465452Y-14614375D01*
X11455928Y-14604851D01*
X11455928Y-14623899D01*
X11579738Y-14804851D02*
X11560690Y-14795327D01*
X11551167Y-14776280D01*
X11551167Y-14604851D01*
X11684500Y-14804851D02*
X11665452Y-14795327D01*
X11655928Y-14776280D01*
X11655928Y-14604851D01*
X11913071Y-14804851D02*
X11913071Y-14604851D01*
X11979738Y-14747708D01*
X12046405Y-14604851D01*
X12046405Y-14804851D01*
X12227357Y-14804851D02*
X12227357Y-14700089D01*
X12217833Y-14681042D01*
X12198786Y-14671518D01*
X12160690Y-14671518D01*
X12141643Y-14681042D01*
X12227357Y-14795327D02*
X12208309Y-14804851D01*
X12160690Y-14804851D01*
X12141643Y-14795327D01*
X12132119Y-14776280D01*
X12132119Y-14757232D01*
X12141643Y-14738184D01*
X12160690Y-14728661D01*
X12208309Y-14728661D01*
X12227357Y-14719137D01*
X12322595Y-14671518D02*
X12322595Y-14871518D01*
X12322595Y-14681042D02*
X12341643Y-14671518D01*
X12379738Y-14671518D01*
X12398786Y-14681042D01*
X12408309Y-14690565D01*
X12417833Y-14709613D01*
X12417833Y-14766756D01*
X12408309Y-14785803D01*
X12398786Y-14795327D01*
X12379738Y-14804851D01*
X12341643Y-14804851D01*
X12322595Y-14795327D01*
X12503548Y-14785803D02*
X12513071Y-14795327D01*
X12503548Y-14804851D01*
X12494024Y-14795327D01*
X12503548Y-14785803D01*
X12503548Y-14804851D01*
X12503548Y-14681042D02*
X12513071Y-14690565D01*
X12503548Y-14700089D01*
X12494024Y-14690565D01*
X12503548Y-14681042D01*
X12503548Y-14700089D01*
D12*
X10834500Y-15114375D02*
X10874500Y-15154375D01*
X10874500Y-15114375D02*
X10834500Y-15154375D01*
D11*
X11170214Y-15024851D02*
X11189262Y-15024851D01*
X11208309Y-15034375D01*
X11217833Y-15043899D01*
X11227357Y-15062946D01*
X11236881Y-15101042D01*
X11236881Y-15148661D01*
X11227357Y-15186756D01*
X11217833Y-15205803D01*
X11208309Y-15215327D01*
X11189262Y-15224851D01*
X11170214Y-15224851D01*
X11151167Y-15215327D01*
X11141643Y-15205803D01*
X11132119Y-15186756D01*
X11122595Y-15148661D01*
X11122595Y-15101042D01*
X11132119Y-15062946D01*
X11141643Y-15043899D01*
X11151167Y-15034375D01*
X11170214Y-15024851D01*
X11322595Y-15205803D02*
X11332119Y-15215327D01*
X11322595Y-15224851D01*
X11313071Y-15215327D01*
X11322595Y-15205803D01*
X11322595Y-15224851D01*
X11503548Y-15091518D02*
X11503548Y-15224851D01*
X11455928Y-15015327D02*
X11408309Y-15158184D01*
X11532119Y-15158184D01*
X11646405Y-15024851D02*
X11665452Y-15024851D01*
X11684500Y-15034375D01*
X11694024Y-15043899D01*
X11703548Y-15062946D01*
X11713071Y-15101042D01*
X11713071Y-15148661D01*
X11703548Y-15186756D01*
X11694024Y-15205803D01*
X11684500Y-15215327D01*
X11665452Y-15224851D01*
X11646405Y-15224851D01*
X11627357Y-15215327D01*
X11617833Y-15205803D01*
X11608309Y-15186756D01*
X11598786Y-15148661D01*
X11598786Y-15101042D01*
X11608309Y-15062946D01*
X11617833Y-15043899D01*
X11627357Y-15034375D01*
X11646405Y-15024851D01*
X11836881Y-15024851D02*
X11855928Y-15024851D01*
X11874976Y-15034375D01*
X11884500Y-15043899D01*
X11894024Y-15062946D01*
X11903548Y-15101042D01*
X11903548Y-15148661D01*
X11894024Y-15186756D01*
X11884500Y-15205803D01*
X11874976Y-15215327D01*
X11855928Y-15224851D01*
X11836881Y-15224851D01*
X11817833Y-15215327D01*
X11808309Y-15205803D01*
X11798786Y-15186756D01*
X11789262Y-15148661D01*
X11789262Y-15101042D01*
X11798786Y-15062946D01*
X11808309Y-15043899D01*
X11817833Y-15034375D01*
X11836881Y-15024851D01*
X11989262Y-15224851D02*
X11989262Y-15091518D01*
X11989262Y-15110565D02*
X11998786Y-15101042D01*
X12017833Y-15091518D01*
X12046405Y-15091518D01*
X12065452Y-15101042D01*
X12074976Y-15120089D01*
X12074976Y-15224851D01*
X12074976Y-15120089D02*
X12084500Y-15101042D01*
X12103548Y-15091518D01*
X12132119Y-15091518D01*
X12151167Y-15101042D01*
X12160690Y-15120089D01*
X12160690Y-15224851D01*
X12255928Y-15224851D02*
X12255928Y-15091518D01*
X12255928Y-15110565D02*
X12265452Y-15101042D01*
X12284500Y-15091518D01*
X12313071Y-15091518D01*
X12332119Y-15101042D01*
X12341643Y-15120089D01*
X12341643Y-15224851D01*
X12341643Y-15120089D02*
X12351167Y-15101042D01*
X12370214Y-15091518D01*
X12398786Y-15091518D01*
X12417833Y-15101042D01*
X12427357Y-15120089D01*
X12427357Y-15224851D01*
X12817833Y-15015327D02*
X12646405Y-15272470D01*
X13074976Y-15024851D02*
X13094024Y-15024851D01*
X13113071Y-15034375D01*
X13122595Y-15043899D01*
X13132119Y-15062946D01*
X13141643Y-15101042D01*
X13141643Y-15148661D01*
X13132119Y-15186756D01*
X13122595Y-15205803D01*
X13113071Y-15215327D01*
X13094024Y-15224851D01*
X13074976Y-15224851D01*
X13055928Y-15215327D01*
X13046405Y-15205803D01*
X13036881Y-15186756D01*
X13027357Y-15148661D01*
X13027357Y-15101042D01*
X13036881Y-15062946D01*
X13046405Y-15043899D01*
X13055928Y-15034375D01*
X13074976Y-15024851D01*
X13227357Y-15205803D02*
X13236881Y-15215327D01*
X13227357Y-15224851D01*
X13217833Y-15215327D01*
X13227357Y-15205803D01*
X13227357Y-15224851D01*
X13360690Y-15024851D02*
X13379738Y-15024851D01*
X13398786Y-15034375D01*
X13408309Y-15043899D01*
X13417833Y-15062946D01*
X13427357Y-15101042D01*
X13427357Y-15148661D01*
X13417833Y-15186756D01*
X13408309Y-15205803D01*
X13398786Y-15215327D01*
X13379738Y-15224851D01*
X13360690Y-15224851D01*
X13341643Y-15215327D01*
X13332119Y-15205803D01*
X13322595Y-15186756D01*
X13313071Y-15148661D01*
X13313071Y-15101042D01*
X13322595Y-15062946D01*
X13332119Y-15043899D01*
X13341643Y-15034375D01*
X13360690Y-15024851D01*
X13617833Y-15224851D02*
X13503548Y-15224851D01*
X13560690Y-15224851D02*
X13560690Y-15024851D01*
X13541643Y-15053423D01*
X13522595Y-15072470D01*
X13503548Y-15081994D01*
X13798786Y-15024851D02*
X13703548Y-15024851D01*
X13694024Y-15120089D01*
X13703548Y-15110565D01*
X13722595Y-15101042D01*
X13770214Y-15101042D01*
X13789262Y-15110565D01*
X13798786Y-15120089D01*
X13808309Y-15139137D01*
X13808309Y-15186756D01*
X13798786Y-15205803D01*
X13789262Y-15215327D01*
X13770214Y-15224851D01*
X13722595Y-15224851D01*
X13703548Y-15215327D01*
X13694024Y-15205803D01*
X13874976Y-15024851D02*
X14008309Y-15024851D01*
X13922595Y-15224851D01*
X14074976Y-15024851D02*
X14074976Y-15062946D01*
X14151167Y-15024851D02*
X14151167Y-15062946D01*
X14446405Y-15301042D02*
X14436881Y-15291518D01*
X14417833Y-15262946D01*
X14408309Y-15243899D01*
X14398786Y-15215327D01*
X14389262Y-15167708D01*
X14389262Y-15129613D01*
X14398786Y-15081994D01*
X14408309Y-15053423D01*
X14417833Y-15034375D01*
X14436881Y-15005803D01*
X14446405Y-14996280D01*
X14503548Y-15024851D02*
X14627357Y-15024851D01*
X14560690Y-15101042D01*
X14589262Y-15101042D01*
X14608309Y-15110565D01*
X14617833Y-15120089D01*
X14627357Y-15139137D01*
X14627357Y-15186756D01*
X14617833Y-15205803D01*
X14608309Y-15215327D01*
X14589262Y-15224851D01*
X14532119Y-15224851D01*
X14513071Y-15215327D01*
X14503548Y-15205803D01*
X14808309Y-15024851D02*
X14713071Y-15024851D01*
X14703548Y-15120089D01*
X14713071Y-15110565D01*
X14732119Y-15101042D01*
X14779738Y-15101042D01*
X14798786Y-15110565D01*
X14808309Y-15120089D01*
X14817833Y-15139137D01*
X14817833Y-15186756D01*
X14808309Y-15205803D01*
X14798786Y-15215327D01*
X14779738Y-15224851D01*
X14732119Y-15224851D01*
X14713071Y-15215327D01*
X14703548Y-15205803D01*
X15055928Y-15224851D02*
X15055928Y-15024851D01*
X15141643Y-15224851D02*
X15141643Y-15120089D01*
X15132119Y-15101042D01*
X15113071Y-15091518D01*
X15084500Y-15091518D01*
X15065452Y-15101042D01*
X15055928Y-15110565D01*
X15265452Y-15224851D02*
X15246405Y-15215327D01*
X15236881Y-15205803D01*
X15227357Y-15186756D01*
X15227357Y-15129613D01*
X15236881Y-15110565D01*
X15246405Y-15101042D01*
X15265452Y-15091518D01*
X15294024Y-15091518D01*
X15313071Y-15101042D01*
X15322595Y-15110565D01*
X15332119Y-15129613D01*
X15332119Y-15186756D01*
X15322595Y-15205803D01*
X15313071Y-15215327D01*
X15294024Y-15224851D01*
X15265452Y-15224851D01*
X15446405Y-15224851D02*
X15427357Y-15215327D01*
X15417833Y-15196280D01*
X15417833Y-15024851D01*
X15598786Y-15215327D02*
X15579738Y-15224851D01*
X15541643Y-15224851D01*
X15522595Y-15215327D01*
X15513071Y-15196280D01*
X15513071Y-15120089D01*
X15522595Y-15101042D01*
X15541643Y-15091518D01*
X15579738Y-15091518D01*
X15598786Y-15101042D01*
X15608309Y-15120089D01*
X15608309Y-15139137D01*
X15513071Y-15158184D01*
X15684500Y-15215327D02*
X15703548Y-15224851D01*
X15741643Y-15224851D01*
X15760690Y-15215327D01*
X15770214Y-15196280D01*
X15770214Y-15186756D01*
X15760690Y-15167708D01*
X15741643Y-15158184D01*
X15713071Y-15158184D01*
X15694024Y-15148661D01*
X15684500Y-15129613D01*
X15684500Y-15120089D01*
X15694024Y-15101042D01*
X15713071Y-15091518D01*
X15741643Y-15091518D01*
X15760690Y-15101042D01*
X15836881Y-15301042D02*
X15846405Y-15291518D01*
X15865452Y-15262946D01*
X15874976Y-15243899D01*
X15884500Y-15215327D01*
X15894024Y-15167708D01*
X15894024Y-15129613D01*
X15884500Y-15081994D01*
X15874976Y-15053423D01*
X15865452Y-15034375D01*
X15846405Y-15005803D01*
X15836881Y-14996280D01*
D13*
X10874500Y-15398375D02*
G75*
G03*
X10874500Y-15398375I-50000J0D01*
G01*
D11*
X11236881Y-15488851D02*
X11122595Y-15488851D01*
X11179738Y-15488851D02*
X11179738Y-15288851D01*
X11160690Y-15317423D01*
X11141643Y-15336470D01*
X11122595Y-15345994D01*
X11322595Y-15469803D02*
X11332119Y-15479327D01*
X11322595Y-15488851D01*
X11313071Y-15479327D01*
X11322595Y-15469803D01*
X11322595Y-15488851D01*
X11455928Y-15288851D02*
X11474976Y-15288851D01*
X11494024Y-15298375D01*
X11503548Y-15307899D01*
X11513071Y-15326946D01*
X11522595Y-15365042D01*
X11522595Y-15412661D01*
X11513071Y-15450756D01*
X11503548Y-15469803D01*
X11494024Y-15479327D01*
X11474976Y-15488851D01*
X11455928Y-15488851D01*
X11436881Y-15479327D01*
X11427357Y-15469803D01*
X11417833Y-15450756D01*
X11408309Y-15412661D01*
X11408309Y-15365042D01*
X11417833Y-15326946D01*
X11427357Y-15307899D01*
X11436881Y-15298375D01*
X11455928Y-15288851D01*
X11646405Y-15288851D02*
X11665452Y-15288851D01*
X11684500Y-15298375D01*
X11694024Y-15307899D01*
X11703548Y-15326946D01*
X11713071Y-15365042D01*
X11713071Y-15412661D01*
X11703548Y-15450756D01*
X11694024Y-15469803D01*
X11684500Y-15479327D01*
X11665452Y-15488851D01*
X11646405Y-15488851D01*
X11627357Y-15479327D01*
X11617833Y-15469803D01*
X11608309Y-15450756D01*
X11598786Y-15412661D01*
X11598786Y-15365042D01*
X11608309Y-15326946D01*
X11617833Y-15307899D01*
X11627357Y-15298375D01*
X11646405Y-15288851D01*
X11836881Y-15288851D02*
X11855928Y-15288851D01*
X11874976Y-15298375D01*
X11884500Y-15307899D01*
X11894024Y-15326946D01*
X11903548Y-15365042D01*
X11903548Y-15412661D01*
X11894024Y-15450756D01*
X11884500Y-15469803D01*
X11874976Y-15479327D01*
X11855928Y-15488851D01*
X11836881Y-15488851D01*
X11817833Y-15479327D01*
X11808309Y-15469803D01*
X11798786Y-15450756D01*
X11789262Y-15412661D01*
X11789262Y-15365042D01*
X11798786Y-15326946D01*
X11808309Y-15307899D01*
X11817833Y-15298375D01*
X11836881Y-15288851D01*
X11989262Y-15488851D02*
X11989262Y-15355518D01*
X11989262Y-15374565D02*
X11998786Y-15365042D01*
X12017833Y-15355518D01*
X12046405Y-15355518D01*
X12065452Y-15365042D01*
X12074976Y-15384089D01*
X12074976Y-15488851D01*
X12074976Y-15384089D02*
X12084500Y-15365042D01*
X12103548Y-15355518D01*
X12132119Y-15355518D01*
X12151167Y-15365042D01*
X12160690Y-15384089D01*
X12160690Y-15488851D01*
X12255928Y-15488851D02*
X12255928Y-15355518D01*
X12255928Y-15374565D02*
X12265452Y-15365042D01*
X12284500Y-15355518D01*
X12313071Y-15355518D01*
X12332119Y-15365042D01*
X12341643Y-15384089D01*
X12341643Y-15488851D01*
X12341643Y-15384089D02*
X12351167Y-15365042D01*
X12370214Y-15355518D01*
X12398786Y-15355518D01*
X12417833Y-15365042D01*
X12427357Y-15384089D01*
X12427357Y-15488851D01*
X12817833Y-15279327D02*
X12646405Y-15536470D01*
X13074976Y-15288851D02*
X13094024Y-15288851D01*
X13113071Y-15298375D01*
X13122595Y-15307899D01*
X13132119Y-15326946D01*
X13141643Y-15365042D01*
X13141643Y-15412661D01*
X13132119Y-15450756D01*
X13122595Y-15469803D01*
X13113071Y-15479327D01*
X13094024Y-15488851D01*
X13074976Y-15488851D01*
X13055928Y-15479327D01*
X13046405Y-15469803D01*
X13036881Y-15450756D01*
X13027357Y-15412661D01*
X13027357Y-15365042D01*
X13036881Y-15326946D01*
X13046405Y-15307899D01*
X13055928Y-15298375D01*
X13074976Y-15288851D01*
X13227357Y-15469803D02*
X13236881Y-15479327D01*
X13227357Y-15488851D01*
X13217833Y-15479327D01*
X13227357Y-15469803D01*
X13227357Y-15488851D01*
X13360690Y-15288851D02*
X13379738Y-15288851D01*
X13398786Y-15298375D01*
X13408309Y-15307899D01*
X13417833Y-15326946D01*
X13427357Y-15365042D01*
X13427357Y-15412661D01*
X13417833Y-15450756D01*
X13408309Y-15469803D01*
X13398786Y-15479327D01*
X13379738Y-15488851D01*
X13360690Y-15488851D01*
X13341643Y-15479327D01*
X13332119Y-15469803D01*
X13322595Y-15450756D01*
X13313071Y-15412661D01*
X13313071Y-15365042D01*
X13322595Y-15326946D01*
X13332119Y-15307899D01*
X13341643Y-15298375D01*
X13360690Y-15288851D01*
X13494024Y-15288851D02*
X13617833Y-15288851D01*
X13551167Y-15365042D01*
X13579738Y-15365042D01*
X13598786Y-15374565D01*
X13608309Y-15384089D01*
X13617833Y-15403137D01*
X13617833Y-15450756D01*
X13608309Y-15469803D01*
X13598786Y-15479327D01*
X13579738Y-15488851D01*
X13522595Y-15488851D01*
X13503548Y-15479327D01*
X13494024Y-15469803D01*
X13713071Y-15488851D02*
X13751167Y-15488851D01*
X13770214Y-15479327D01*
X13779738Y-15469803D01*
X13798786Y-15441232D01*
X13808309Y-15403137D01*
X13808309Y-15326946D01*
X13798786Y-15307899D01*
X13789262Y-15298375D01*
X13770214Y-15288851D01*
X13732119Y-15288851D01*
X13713071Y-15298375D01*
X13703548Y-15307899D01*
X13694024Y-15326946D01*
X13694024Y-15374565D01*
X13703548Y-15393613D01*
X13713071Y-15403137D01*
X13732119Y-15412661D01*
X13770214Y-15412661D01*
X13789262Y-15403137D01*
X13798786Y-15393613D01*
X13808309Y-15374565D01*
X13979738Y-15355518D02*
X13979738Y-15488851D01*
X13932119Y-15279327D02*
X13884500Y-15422184D01*
X14008309Y-15422184D01*
X14074976Y-15288851D02*
X14074976Y-15326946D01*
X14151167Y-15288851D02*
X14151167Y-15326946D01*
X14446405Y-15565042D02*
X14436881Y-15555518D01*
X14417833Y-15526946D01*
X14408309Y-15507899D01*
X14398786Y-15479327D01*
X14389262Y-15431708D01*
X14389262Y-15393613D01*
X14398786Y-15345994D01*
X14408309Y-15317423D01*
X14417833Y-15298375D01*
X14436881Y-15269803D01*
X14446405Y-15260280D01*
X14627357Y-15488851D02*
X14513071Y-15488851D01*
X14570214Y-15488851D02*
X14570214Y-15288851D01*
X14551167Y-15317423D01*
X14532119Y-15336470D01*
X14513071Y-15345994D01*
X14798786Y-15355518D02*
X14798786Y-15488851D01*
X14751167Y-15279327D02*
X14703548Y-15422184D01*
X14827357Y-15422184D01*
X14932119Y-15374565D02*
X14913071Y-15365042D01*
X14903548Y-15355518D01*
X14894024Y-15336470D01*
X14894024Y-15326946D01*
X14903548Y-15307899D01*
X14913071Y-15298375D01*
X14932119Y-15288851D01*
X14970214Y-15288851D01*
X14989262Y-15298375D01*
X14998786Y-15307899D01*
X15008309Y-15326946D01*
X15008309Y-15336470D01*
X14998786Y-15355518D01*
X14989262Y-15365042D01*
X14970214Y-15374565D01*
X14932119Y-15374565D01*
X14913071Y-15384089D01*
X14903548Y-15393613D01*
X14894024Y-15412661D01*
X14894024Y-15450756D01*
X14903548Y-15469803D01*
X14913071Y-15479327D01*
X14932119Y-15488851D01*
X14970214Y-15488851D01*
X14989262Y-15479327D01*
X14998786Y-15469803D01*
X15008309Y-15450756D01*
X15008309Y-15412661D01*
X14998786Y-15393613D01*
X14989262Y-15384089D01*
X14970214Y-15374565D01*
X15246405Y-15488851D02*
X15246405Y-15288851D01*
X15332119Y-15488851D02*
X15332119Y-15384089D01*
X15322595Y-15365042D01*
X15303548Y-15355518D01*
X15274976Y-15355518D01*
X15255928Y-15365042D01*
X15246405Y-15374565D01*
X15455928Y-15488851D02*
X15436881Y-15479327D01*
X15427357Y-15469803D01*
X15417833Y-15450756D01*
X15417833Y-15393613D01*
X15427357Y-15374565D01*
X15436881Y-15365042D01*
X15455928Y-15355518D01*
X15484500Y-15355518D01*
X15503548Y-15365042D01*
X15513071Y-15374565D01*
X15522595Y-15393613D01*
X15522595Y-15450756D01*
X15513071Y-15469803D01*
X15503548Y-15479327D01*
X15484500Y-15488851D01*
X15455928Y-15488851D01*
X15636881Y-15488851D02*
X15617833Y-15479327D01*
X15608309Y-15460280D01*
X15608309Y-15288851D01*
X15789262Y-15479327D02*
X15770214Y-15488851D01*
X15732119Y-15488851D01*
X15713071Y-15479327D01*
X15703548Y-15460280D01*
X15703548Y-15384089D01*
X15713071Y-15365042D01*
X15732119Y-15355518D01*
X15770214Y-15355518D01*
X15789262Y-15365042D01*
X15798786Y-15384089D01*
X15798786Y-15403137D01*
X15703548Y-15422184D01*
X15874976Y-15479327D02*
X15894024Y-15488851D01*
X15932119Y-15488851D01*
X15951167Y-15479327D01*
X15960690Y-15460280D01*
X15960690Y-15450756D01*
X15951167Y-15431708D01*
X15932119Y-15422184D01*
X15903548Y-15422184D01*
X15884500Y-15412661D01*
X15874976Y-15393613D01*
X15874976Y-15384089D01*
X15884500Y-15365042D01*
X15903548Y-15355518D01*
X15932119Y-15355518D01*
X15951167Y-15365042D01*
X16027357Y-15565042D02*
X16036881Y-15555518D01*
X16055928Y-15526946D01*
X16065452Y-15507899D01*
X16074976Y-15479327D01*
X16084500Y-15431708D01*
X16084500Y-15393613D01*
X16074976Y-15345994D01*
X16065452Y-15317423D01*
X16055928Y-15298375D01*
X16036881Y-15269803D01*
X16027357Y-15260280D01*
D14*
X10819500Y-15607375D02*
X10819500Y-15717375D01*
X10764500Y-15662375D02*
X10874500Y-15662375D01*
D11*
X11236881Y-15752851D02*
X11122595Y-15752851D01*
X11179738Y-15752851D02*
X11179738Y-15552851D01*
X11160690Y-15581423D01*
X11141643Y-15600470D01*
X11122595Y-15609994D01*
X11322595Y-15733803D02*
X11332119Y-15743327D01*
X11322595Y-15752851D01*
X11313071Y-15743327D01*
X11322595Y-15733803D01*
X11322595Y-15752851D01*
X11522595Y-15752851D02*
X11408309Y-15752851D01*
X11465452Y-15752851D02*
X11465452Y-15552851D01*
X11446405Y-15581423D01*
X11427357Y-15600470D01*
X11408309Y-15609994D01*
X11646405Y-15552851D02*
X11665452Y-15552851D01*
X11684500Y-15562375D01*
X11694024Y-15571899D01*
X11703548Y-15590946D01*
X11713071Y-15629042D01*
X11713071Y-15676661D01*
X11703548Y-15714756D01*
X11694024Y-15733803D01*
X11684500Y-15743327D01*
X11665452Y-15752851D01*
X11646405Y-15752851D01*
X11627357Y-15743327D01*
X11617833Y-15733803D01*
X11608309Y-15714756D01*
X11598786Y-15676661D01*
X11598786Y-15629042D01*
X11608309Y-15590946D01*
X11617833Y-15571899D01*
X11627357Y-15562375D01*
X11646405Y-15552851D01*
X11836881Y-15552851D02*
X11855928Y-15552851D01*
X11874976Y-15562375D01*
X11884500Y-15571899D01*
X11894024Y-15590946D01*
X11903548Y-15629042D01*
X11903548Y-15676661D01*
X11894024Y-15714756D01*
X11884500Y-15733803D01*
X11874976Y-15743327D01*
X11855928Y-15752851D01*
X11836881Y-15752851D01*
X11817833Y-15743327D01*
X11808309Y-15733803D01*
X11798786Y-15714756D01*
X11789262Y-15676661D01*
X11789262Y-15629042D01*
X11798786Y-15590946D01*
X11808309Y-15571899D01*
X11817833Y-15562375D01*
X11836881Y-15552851D01*
X11989262Y-15752851D02*
X11989262Y-15619518D01*
X11989262Y-15638565D02*
X11998786Y-15629042D01*
X12017833Y-15619518D01*
X12046405Y-15619518D01*
X12065452Y-15629042D01*
X12074976Y-15648089D01*
X12074976Y-15752851D01*
X12074976Y-15648089D02*
X12084500Y-15629042D01*
X12103548Y-15619518D01*
X12132119Y-15619518D01*
X12151167Y-15629042D01*
X12160690Y-15648089D01*
X12160690Y-15752851D01*
X12255928Y-15752851D02*
X12255928Y-15619518D01*
X12255928Y-15638565D02*
X12265452Y-15629042D01*
X12284500Y-15619518D01*
X12313071Y-15619518D01*
X12332119Y-15629042D01*
X12341643Y-15648089D01*
X12341643Y-15752851D01*
X12341643Y-15648089D02*
X12351167Y-15629042D01*
X12370214Y-15619518D01*
X12398786Y-15619518D01*
X12417833Y-15629042D01*
X12427357Y-15648089D01*
X12427357Y-15752851D01*
X12817833Y-15543327D02*
X12646405Y-15800470D01*
X13074976Y-15552851D02*
X13094024Y-15552851D01*
X13113071Y-15562375D01*
X13122595Y-15571899D01*
X13132119Y-15590946D01*
X13141643Y-15629042D01*
X13141643Y-15676661D01*
X13132119Y-15714756D01*
X13122595Y-15733803D01*
X13113071Y-15743327D01*
X13094024Y-15752851D01*
X13074976Y-15752851D01*
X13055928Y-15743327D01*
X13046405Y-15733803D01*
X13036881Y-15714756D01*
X13027357Y-15676661D01*
X13027357Y-15629042D01*
X13036881Y-15590946D01*
X13046405Y-15571899D01*
X13055928Y-15562375D01*
X13074976Y-15552851D01*
X13227357Y-15733803D02*
X13236881Y-15743327D01*
X13227357Y-15752851D01*
X13217833Y-15743327D01*
X13227357Y-15733803D01*
X13227357Y-15752851D01*
X13360690Y-15552851D02*
X13379738Y-15552851D01*
X13398786Y-15562375D01*
X13408309Y-15571899D01*
X13417833Y-15590946D01*
X13427357Y-15629042D01*
X13427357Y-15676661D01*
X13417833Y-15714756D01*
X13408309Y-15733803D01*
X13398786Y-15743327D01*
X13379738Y-15752851D01*
X13360690Y-15752851D01*
X13341643Y-15743327D01*
X13332119Y-15733803D01*
X13322595Y-15714756D01*
X13313071Y-15676661D01*
X13313071Y-15629042D01*
X13322595Y-15590946D01*
X13332119Y-15571899D01*
X13341643Y-15562375D01*
X13360690Y-15552851D01*
X13598786Y-15619518D02*
X13598786Y-15752851D01*
X13551167Y-15543327D02*
X13503548Y-15686184D01*
X13627357Y-15686184D01*
X13684500Y-15552851D02*
X13808309Y-15552851D01*
X13741643Y-15629042D01*
X13770214Y-15629042D01*
X13789262Y-15638565D01*
X13798786Y-15648089D01*
X13808309Y-15667137D01*
X13808309Y-15714756D01*
X13798786Y-15733803D01*
X13789262Y-15743327D01*
X13770214Y-15752851D01*
X13713071Y-15752851D01*
X13694024Y-15743327D01*
X13684500Y-15733803D01*
X13874976Y-15552851D02*
X13998786Y-15552851D01*
X13932119Y-15629042D01*
X13960690Y-15629042D01*
X13979738Y-15638565D01*
X13989262Y-15648089D01*
X13998786Y-15667137D01*
X13998786Y-15714756D01*
X13989262Y-15733803D01*
X13979738Y-15743327D01*
X13960690Y-15752851D01*
X13903548Y-15752851D01*
X13884500Y-15743327D01*
X13874976Y-15733803D01*
X14074976Y-15552851D02*
X14074976Y-15590946D01*
X14151167Y-15552851D02*
X14151167Y-15590946D01*
X14446405Y-15829042D02*
X14436881Y-15819518D01*
X14417833Y-15790946D01*
X14408309Y-15771899D01*
X14398786Y-15743327D01*
X14389262Y-15695708D01*
X14389262Y-15657613D01*
X14398786Y-15609994D01*
X14408309Y-15581423D01*
X14417833Y-15562375D01*
X14436881Y-15533803D01*
X14446405Y-15524280D01*
X14551167Y-15638565D02*
X14532119Y-15629042D01*
X14522595Y-15619518D01*
X14513071Y-15600470D01*
X14513071Y-15590946D01*
X14522595Y-15571899D01*
X14532119Y-15562375D01*
X14551167Y-15552851D01*
X14589262Y-15552851D01*
X14608309Y-15562375D01*
X14617833Y-15571899D01*
X14627357Y-15590946D01*
X14627357Y-15600470D01*
X14617833Y-15619518D01*
X14608309Y-15629042D01*
X14589262Y-15638565D01*
X14551167Y-15638565D01*
X14532119Y-15648089D01*
X14522595Y-15657613D01*
X14513071Y-15676661D01*
X14513071Y-15714756D01*
X14522595Y-15733803D01*
X14532119Y-15743327D01*
X14551167Y-15752851D01*
X14589262Y-15752851D01*
X14608309Y-15743327D01*
X14617833Y-15733803D01*
X14627357Y-15714756D01*
X14627357Y-15676661D01*
X14617833Y-15657613D01*
X14608309Y-15648089D01*
X14589262Y-15638565D01*
X14865452Y-15752851D02*
X14865452Y-15552851D01*
X14951167Y-15752851D02*
X14951167Y-15648089D01*
X14941643Y-15629042D01*
X14922595Y-15619518D01*
X14894024Y-15619518D01*
X14874976Y-15629042D01*
X14865452Y-15638565D01*
X15074976Y-15752851D02*
X15055928Y-15743327D01*
X15046405Y-15733803D01*
X15036881Y-15714756D01*
X15036881Y-15657613D01*
X15046405Y-15638565D01*
X15055928Y-15629042D01*
X15074976Y-15619518D01*
X15103548Y-15619518D01*
X15122595Y-15629042D01*
X15132119Y-15638565D01*
X15141643Y-15657613D01*
X15141643Y-15714756D01*
X15132119Y-15733803D01*
X15122595Y-15743327D01*
X15103548Y-15752851D01*
X15074976Y-15752851D01*
X15255928Y-15752851D02*
X15236881Y-15743327D01*
X15227357Y-15724280D01*
X15227357Y-15552851D01*
X15408309Y-15743327D02*
X15389262Y-15752851D01*
X15351167Y-15752851D01*
X15332119Y-15743327D01*
X15322595Y-15724280D01*
X15322595Y-15648089D01*
X15332119Y-15629042D01*
X15351167Y-15619518D01*
X15389262Y-15619518D01*
X15408309Y-15629042D01*
X15417833Y-15648089D01*
X15417833Y-15667137D01*
X15322595Y-15686184D01*
X15494024Y-15743327D02*
X15513071Y-15752851D01*
X15551167Y-15752851D01*
X15570214Y-15743327D01*
X15579738Y-15724280D01*
X15579738Y-15714756D01*
X15570214Y-15695708D01*
X15551167Y-15686184D01*
X15522595Y-15686184D01*
X15503548Y-15676661D01*
X15494024Y-15657613D01*
X15494024Y-15648089D01*
X15503548Y-15629042D01*
X15522595Y-15619518D01*
X15551167Y-15619518D01*
X15570214Y-15629042D01*
X15646405Y-15829042D02*
X15655928Y-15819518D01*
X15674976Y-15790946D01*
X15684500Y-15771899D01*
X15694024Y-15743327D01*
X15703548Y-15695708D01*
X15703548Y-15657613D01*
X15694024Y-15609994D01*
X15684500Y-15581423D01*
X15674976Y-15562375D01*
X15655928Y-15533803D01*
X15646405Y-15524280D01*
M02*
