%FSLAX45Y45*%
G04 Gerber Fmt 4.5, Leading zero omitted, Abs format (unit mm)*
G04 Created by KiCad (PCBNEW 6.0.0-d3dd2cf0fa~116~ubuntu20.04.1) date 2022-02-28 23:19:30*
%MOMM*%
%LPD*%
G01*
G04 APERTURE LIST*
%TA.AperFunction,Profile*%
%ADD10C,0.010000*%
%TD*%
%ADD11C,0.200000*%
%ADD12C,0.320000*%
G04 APERTURE END LIST*
D10*
X20872500Y-4494970D02*
X20872500Y-14493875D01*
X14033500Y-4494970D02*
X20872500Y-4494970D01*
X10875000Y-14493875D02*
X20872500Y-14493875D01*
X14033500Y-7293870D02*
X14033500Y-4494970D01*
X10875000Y-14493875D02*
X10875000Y-7293870D01*
X10875000Y-7293870D02*
X14033500Y-7293870D01*
D11*
D12*
X11080000Y-8730000D02*
X11400000Y-9050000D01*
X11400000Y-8730000D02*
X11080000Y-9050000D01*
X11080000Y-13970000D02*
X11400000Y-14290000D01*
X11400000Y-13970000D02*
X11080000Y-14290000D01*
X20350000Y-13970000D02*
X20670000Y-14290000D01*
X20670000Y-13970000D02*
X20350000Y-14290000D01*
X20350500Y-4729500D02*
X20670500Y-5049500D01*
X20670500Y-4729500D02*
X20350500Y-5049500D01*
D11*
X11132119Y-14804851D02*
X11132119Y-14604851D01*
X11179738Y-14604851D01*
X11208309Y-14614375D01*
X11227357Y-14633423D01*
X11236881Y-14652470D01*
X11246405Y-14690565D01*
X11246405Y-14719137D01*
X11236881Y-14757232D01*
X11227357Y-14776280D01*
X11208309Y-14795327D01*
X11179738Y-14804851D01*
X11132119Y-14804851D01*
X11332119Y-14804851D02*
X11332119Y-14671518D01*
X11332119Y-14709613D02*
X11341643Y-14690565D01*
X11351167Y-14681042D01*
X11370214Y-14671518D01*
X11389262Y-14671518D01*
X11455928Y-14804851D02*
X11455928Y-14671518D01*
X11455928Y-14604851D02*
X11446405Y-14614375D01*
X11455928Y-14623899D01*
X11465452Y-14614375D01*
X11455928Y-14604851D01*
X11455928Y-14623899D01*
X11579738Y-14804851D02*
X11560690Y-14795327D01*
X11551167Y-14776280D01*
X11551167Y-14604851D01*
X11684500Y-14804851D02*
X11665452Y-14795327D01*
X11655928Y-14776280D01*
X11655928Y-14604851D01*
X11913071Y-14804851D02*
X11913071Y-14604851D01*
X11979738Y-14747708D01*
X12046405Y-14604851D01*
X12046405Y-14804851D01*
X12227357Y-14804851D02*
X12227357Y-14700089D01*
X12217833Y-14681042D01*
X12198786Y-14671518D01*
X12160690Y-14671518D01*
X12141643Y-14681042D01*
X12227357Y-14795327D02*
X12208309Y-14804851D01*
X12160690Y-14804851D01*
X12141643Y-14795327D01*
X12132119Y-14776280D01*
X12132119Y-14757232D01*
X12141643Y-14738184D01*
X12160690Y-14728661D01*
X12208309Y-14728661D01*
X12227357Y-14719137D01*
X12322595Y-14671518D02*
X12322595Y-14871518D01*
X12322595Y-14681042D02*
X12341643Y-14671518D01*
X12379738Y-14671518D01*
X12398786Y-14681042D01*
X12408309Y-14690565D01*
X12417833Y-14709613D01*
X12417833Y-14766756D01*
X12408309Y-14785803D01*
X12398786Y-14795327D01*
X12379738Y-14804851D01*
X12341643Y-14804851D01*
X12322595Y-14795327D01*
X12503548Y-14785803D02*
X12513071Y-14795327D01*
X12503548Y-14804851D01*
X12494024Y-14795327D01*
X12503548Y-14785803D01*
X12503548Y-14804851D01*
X12503548Y-14681042D02*
X12513071Y-14690565D01*
X12503548Y-14700089D01*
X12494024Y-14690565D01*
X12503548Y-14681042D01*
X12503548Y-14700089D01*
X10674500Y-15034375D02*
X10874500Y-15234375D01*
X10874500Y-15034375D02*
X10674500Y-15234375D01*
X11113071Y-15024851D02*
X11236881Y-15024851D01*
X11170214Y-15101042D01*
X11198786Y-15101042D01*
X11217833Y-15110565D01*
X11227357Y-15120089D01*
X11236881Y-15139137D01*
X11236881Y-15186756D01*
X11227357Y-15205803D01*
X11217833Y-15215327D01*
X11198786Y-15224851D01*
X11141643Y-15224851D01*
X11122595Y-15215327D01*
X11113071Y-15205803D01*
X11322595Y-15205803D02*
X11332119Y-15215327D01*
X11322595Y-15224851D01*
X11313071Y-15215327D01*
X11322595Y-15205803D01*
X11322595Y-15224851D01*
X11408309Y-15043899D02*
X11417833Y-15034375D01*
X11436881Y-15024851D01*
X11484500Y-15024851D01*
X11503548Y-15034375D01*
X11513071Y-15043899D01*
X11522595Y-15062946D01*
X11522595Y-15081994D01*
X11513071Y-15110565D01*
X11398786Y-15224851D01*
X11522595Y-15224851D01*
X11646405Y-15024851D02*
X11665452Y-15024851D01*
X11684500Y-15034375D01*
X11694024Y-15043899D01*
X11703548Y-15062946D01*
X11713071Y-15101042D01*
X11713071Y-15148661D01*
X11703548Y-15186756D01*
X11694024Y-15205803D01*
X11684500Y-15215327D01*
X11665452Y-15224851D01*
X11646405Y-15224851D01*
X11627357Y-15215327D01*
X11617833Y-15205803D01*
X11608309Y-15186756D01*
X11598786Y-15148661D01*
X11598786Y-15101042D01*
X11608309Y-15062946D01*
X11617833Y-15043899D01*
X11627357Y-15034375D01*
X11646405Y-15024851D01*
X11836881Y-15024851D02*
X11855928Y-15024851D01*
X11874976Y-15034375D01*
X11884500Y-15043899D01*
X11894024Y-15062946D01*
X11903548Y-15101042D01*
X11903548Y-15148661D01*
X11894024Y-15186756D01*
X11884500Y-15205803D01*
X11874976Y-15215327D01*
X11855928Y-15224851D01*
X11836881Y-15224851D01*
X11817833Y-15215327D01*
X11808309Y-15205803D01*
X11798786Y-15186756D01*
X11789262Y-15148661D01*
X11789262Y-15101042D01*
X11798786Y-15062946D01*
X11808309Y-15043899D01*
X11817833Y-15034375D01*
X11836881Y-15024851D01*
X11989262Y-15224851D02*
X11989262Y-15091518D01*
X11989262Y-15110565D02*
X11998786Y-15101042D01*
X12017833Y-15091518D01*
X12046405Y-15091518D01*
X12065452Y-15101042D01*
X12074976Y-15120089D01*
X12074976Y-15224851D01*
X12074976Y-15120089D02*
X12084500Y-15101042D01*
X12103548Y-15091518D01*
X12132119Y-15091518D01*
X12151167Y-15101042D01*
X12160690Y-15120089D01*
X12160690Y-15224851D01*
X12255928Y-15224851D02*
X12255928Y-15091518D01*
X12255928Y-15110565D02*
X12265452Y-15101042D01*
X12284500Y-15091518D01*
X12313071Y-15091518D01*
X12332119Y-15101042D01*
X12341643Y-15120089D01*
X12341643Y-15224851D01*
X12341643Y-15120089D02*
X12351167Y-15101042D01*
X12370214Y-15091518D01*
X12398786Y-15091518D01*
X12417833Y-15101042D01*
X12427357Y-15120089D01*
X12427357Y-15224851D01*
X12817833Y-15015327D02*
X12646405Y-15272470D01*
X13074976Y-15024851D02*
X13094024Y-15024851D01*
X13113071Y-15034375D01*
X13122595Y-15043899D01*
X13132119Y-15062946D01*
X13141643Y-15101042D01*
X13141643Y-15148661D01*
X13132119Y-15186756D01*
X13122595Y-15205803D01*
X13113071Y-15215327D01*
X13094024Y-15224851D01*
X13074976Y-15224851D01*
X13055928Y-15215327D01*
X13046405Y-15205803D01*
X13036881Y-15186756D01*
X13027357Y-15148661D01*
X13027357Y-15101042D01*
X13036881Y-15062946D01*
X13046405Y-15043899D01*
X13055928Y-15034375D01*
X13074976Y-15024851D01*
X13227357Y-15205803D02*
X13236881Y-15215327D01*
X13227357Y-15224851D01*
X13217833Y-15215327D01*
X13227357Y-15205803D01*
X13227357Y-15224851D01*
X13427357Y-15224851D02*
X13313071Y-15224851D01*
X13370214Y-15224851D02*
X13370214Y-15024851D01*
X13351167Y-15053423D01*
X13332119Y-15072470D01*
X13313071Y-15081994D01*
X13503548Y-15043899D02*
X13513071Y-15034375D01*
X13532119Y-15024851D01*
X13579738Y-15024851D01*
X13598786Y-15034375D01*
X13608309Y-15043899D01*
X13617833Y-15062946D01*
X13617833Y-15081994D01*
X13608309Y-15110565D01*
X13494024Y-15224851D01*
X13617833Y-15224851D01*
X13789262Y-15024851D02*
X13751167Y-15024851D01*
X13732119Y-15034375D01*
X13722595Y-15043899D01*
X13703548Y-15072470D01*
X13694024Y-15110565D01*
X13694024Y-15186756D01*
X13703548Y-15205803D01*
X13713071Y-15215327D01*
X13732119Y-15224851D01*
X13770214Y-15224851D01*
X13789262Y-15215327D01*
X13798786Y-15205803D01*
X13808309Y-15186756D01*
X13808309Y-15139137D01*
X13798786Y-15120089D01*
X13789262Y-15110565D01*
X13770214Y-15101042D01*
X13732119Y-15101042D01*
X13713071Y-15110565D01*
X13703548Y-15120089D01*
X13694024Y-15139137D01*
X13932119Y-15024851D02*
X13951167Y-15024851D01*
X13970214Y-15034375D01*
X13979738Y-15043899D01*
X13989262Y-15062946D01*
X13998786Y-15101042D01*
X13998786Y-15148661D01*
X13989262Y-15186756D01*
X13979738Y-15205803D01*
X13970214Y-15215327D01*
X13951167Y-15224851D01*
X13932119Y-15224851D01*
X13913071Y-15215327D01*
X13903548Y-15205803D01*
X13894024Y-15186756D01*
X13884500Y-15148661D01*
X13884500Y-15101042D01*
X13894024Y-15062946D01*
X13903548Y-15043899D01*
X13913071Y-15034375D01*
X13932119Y-15024851D01*
X14074976Y-15024851D02*
X14074976Y-15062946D01*
X14151167Y-15024851D02*
X14151167Y-15062946D01*
X14446405Y-15301042D02*
X14436881Y-15291518D01*
X14417833Y-15262946D01*
X14408309Y-15243899D01*
X14398786Y-15215327D01*
X14389262Y-15167708D01*
X14389262Y-15129613D01*
X14398786Y-15081994D01*
X14408309Y-15053423D01*
X14417833Y-15034375D01*
X14436881Y-15005803D01*
X14446405Y-14996280D01*
X14608309Y-15091518D02*
X14608309Y-15224851D01*
X14560690Y-15015327D02*
X14513071Y-15158184D01*
X14636881Y-15158184D01*
X14865452Y-15224851D02*
X14865452Y-15024851D01*
X14951167Y-15224851D02*
X14951167Y-15120089D01*
X14941643Y-15101042D01*
X14922595Y-15091518D01*
X14894024Y-15091518D01*
X14874976Y-15101042D01*
X14865452Y-15110565D01*
X15074976Y-15224851D02*
X15055928Y-15215327D01*
X15046405Y-15205803D01*
X15036881Y-15186756D01*
X15036881Y-15129613D01*
X15046405Y-15110565D01*
X15055928Y-15101042D01*
X15074976Y-15091518D01*
X15103548Y-15091518D01*
X15122595Y-15101042D01*
X15132119Y-15110565D01*
X15141643Y-15129613D01*
X15141643Y-15186756D01*
X15132119Y-15205803D01*
X15122595Y-15215327D01*
X15103548Y-15224851D01*
X15074976Y-15224851D01*
X15255928Y-15224851D02*
X15236881Y-15215327D01*
X15227357Y-15196280D01*
X15227357Y-15024851D01*
X15408309Y-15215327D02*
X15389262Y-15224851D01*
X15351167Y-15224851D01*
X15332119Y-15215327D01*
X15322595Y-15196280D01*
X15322595Y-15120089D01*
X15332119Y-15101042D01*
X15351167Y-15091518D01*
X15389262Y-15091518D01*
X15408309Y-15101042D01*
X15417833Y-15120089D01*
X15417833Y-15139137D01*
X15322595Y-15158184D01*
X15494024Y-15215327D02*
X15513071Y-15224851D01*
X15551167Y-15224851D01*
X15570214Y-15215327D01*
X15579738Y-15196280D01*
X15579738Y-15186756D01*
X15570214Y-15167708D01*
X15551167Y-15158184D01*
X15522595Y-15158184D01*
X15503548Y-15148661D01*
X15494024Y-15129613D01*
X15494024Y-15120089D01*
X15503548Y-15101042D01*
X15522595Y-15091518D01*
X15551167Y-15091518D01*
X15570214Y-15101042D01*
X15646405Y-15301042D02*
X15655928Y-15291518D01*
X15674976Y-15262946D01*
X15684500Y-15243899D01*
X15694024Y-15215327D01*
X15703548Y-15167708D01*
X15703548Y-15129613D01*
X15694024Y-15081994D01*
X15684500Y-15053423D01*
X15674976Y-15034375D01*
X15655928Y-15005803D01*
X15646405Y-14996280D01*
X16008309Y-15301042D02*
X15998786Y-15291518D01*
X15979738Y-15262946D01*
X15970214Y-15243899D01*
X15960690Y-15215327D01*
X15951167Y-15167708D01*
X15951167Y-15129613D01*
X15960690Y-15081994D01*
X15970214Y-15053423D01*
X15979738Y-15034375D01*
X15998786Y-15005803D01*
X16008309Y-14996280D01*
X16084500Y-15091518D02*
X16084500Y-15224851D01*
X16084500Y-15110565D02*
X16094024Y-15101042D01*
X16113071Y-15091518D01*
X16141643Y-15091518D01*
X16160690Y-15101042D01*
X16170214Y-15120089D01*
X16170214Y-15224851D01*
X16294024Y-15224851D02*
X16274976Y-15215327D01*
X16265452Y-15205803D01*
X16255928Y-15186756D01*
X16255928Y-15129613D01*
X16265452Y-15110565D01*
X16274976Y-15101042D01*
X16294024Y-15091518D01*
X16322595Y-15091518D01*
X16341643Y-15101042D01*
X16351167Y-15110565D01*
X16360690Y-15129613D01*
X16360690Y-15186756D01*
X16351167Y-15205803D01*
X16341643Y-15215327D01*
X16322595Y-15224851D01*
X16294024Y-15224851D01*
X16417833Y-15091518D02*
X16494024Y-15091518D01*
X16446405Y-15024851D02*
X16446405Y-15196280D01*
X16455928Y-15215327D01*
X16474976Y-15224851D01*
X16494024Y-15224851D01*
X16713071Y-15091518D02*
X16713071Y-15291518D01*
X16713071Y-15101042D02*
X16732119Y-15091518D01*
X16770214Y-15091518D01*
X16789262Y-15101042D01*
X16798786Y-15110565D01*
X16808310Y-15129613D01*
X16808310Y-15186756D01*
X16798786Y-15205803D01*
X16789262Y-15215327D01*
X16770214Y-15224851D01*
X16732119Y-15224851D01*
X16713071Y-15215327D01*
X16922595Y-15224851D02*
X16903548Y-15215327D01*
X16894024Y-15196280D01*
X16894024Y-15024851D01*
X17084500Y-15224851D02*
X17084500Y-15120089D01*
X17074976Y-15101042D01*
X17055929Y-15091518D01*
X17017833Y-15091518D01*
X16998786Y-15101042D01*
X17084500Y-15215327D02*
X17065452Y-15224851D01*
X17017833Y-15224851D01*
X16998786Y-15215327D01*
X16989262Y-15196280D01*
X16989262Y-15177232D01*
X16998786Y-15158184D01*
X17017833Y-15148661D01*
X17065452Y-15148661D01*
X17084500Y-15139137D01*
X17151167Y-15091518D02*
X17227357Y-15091518D01*
X17179738Y-15024851D02*
X17179738Y-15196280D01*
X17189262Y-15215327D01*
X17208310Y-15224851D01*
X17227357Y-15224851D01*
X17370214Y-15215327D02*
X17351167Y-15224851D01*
X17313071Y-15224851D01*
X17294024Y-15215327D01*
X17284500Y-15196280D01*
X17284500Y-15120089D01*
X17294024Y-15101042D01*
X17313071Y-15091518D01*
X17351167Y-15091518D01*
X17370214Y-15101042D01*
X17379738Y-15120089D01*
X17379738Y-15139137D01*
X17284500Y-15158184D01*
X17551167Y-15224851D02*
X17551167Y-15024851D01*
X17551167Y-15215327D02*
X17532119Y-15224851D01*
X17494024Y-15224851D01*
X17474976Y-15215327D01*
X17465452Y-15205803D01*
X17455929Y-15186756D01*
X17455929Y-15129613D01*
X17465452Y-15110565D01*
X17474976Y-15101042D01*
X17494024Y-15091518D01*
X17532119Y-15091518D01*
X17551167Y-15101042D01*
X17627357Y-15301042D02*
X17636881Y-15291518D01*
X17655929Y-15262946D01*
X17665452Y-15243899D01*
X17674976Y-15215327D01*
X17684500Y-15167708D01*
X17684500Y-15129613D01*
X17674976Y-15081994D01*
X17665452Y-15053423D01*
X17655929Y-15034375D01*
X17636881Y-15005803D01*
X17627357Y-14996280D01*
M02*
