%TF.GenerationSoftware,KiCad,Pcbnew,6.0.9-8da3e8f707~117~ubuntu20.04.1*%
%TF.CreationDate,2022-12-26T13:00:26+01:00*%
%TF.ProjectId,addon-edge-rpi-i2s-pmod,6164646f-6e2d-4656-9467-652d7270692d,1.10*%
%TF.SameCoordinates,Original*%
%TF.FileFunction,Soldermask,Bot*%
%TF.FilePolarity,Negative*%
%FSLAX46Y46*%
G04 Gerber Fmt 4.6, Leading zero omitted, Abs format (unit mm)*
G04 Created by KiCad (PCBNEW 6.0.9-8da3e8f707~117~ubuntu20.04.1) date 2022-12-26 13:00:26*
%MOMM*%
%LPD*%
G01*
G04 APERTURE LIST*
G04 Aperture macros list*
%AMRoundRect*
0 Rectangle with rounded corners*
0 $1 Rounding radius*
0 $2 $3 $4 $5 $6 $7 $8 $9 X,Y pos of 4 corners*
0 Add a 4 corners polygon primitive as box body*
4,1,4,$2,$3,$4,$5,$6,$7,$8,$9,$2,$3,0*
0 Add four circle primitives for the rounded corners*
1,1,$1+$1,$2,$3*
1,1,$1+$1,$4,$5*
1,1,$1+$1,$6,$7*
1,1,$1+$1,$8,$9*
0 Add four rect primitives between the rounded corners*
20,1,$1+$1,$2,$3,$4,$5,0*
20,1,$1+$1,$4,$5,$6,$7,0*
20,1,$1+$1,$6,$7,$8,$9,0*
20,1,$1+$1,$8,$9,$2,$3,0*%
%AMFreePoly0*
4,1,37,0.585355,0.785355,0.600000,0.750000,0.600000,-0.750000,0.585355,-0.785355,0.550000,-0.800000,0.000000,-0.800000,-0.012524,-0.794812,-0.080857,-0.793560,-0.094851,-0.791293,-0.230166,-0.749018,-0.242962,-0.742915,-0.360972,-0.664360,-0.371540,-0.654911,-0.462760,-0.546392,-0.470252,-0.534356,-0.527347,-0.404597,-0.531159,-0.390943,-0.548742,-0.256483,-0.547388,-0.256306,-0.550000,-0.250000,
-0.550000,0.250000,-0.549522,0.251153,-0.549368,0.263802,-0.527557,0.403879,-0.523412,0.417435,-0.463164,0.545760,-0.455381,0.557609,-0.361537,0.663867,-0.350741,0.673055,-0.230846,0.748703,-0.217905,0.754492,-0.081598,0.793449,-0.067552,0.795373,-0.011991,0.795033,0.000000,0.800000,0.550000,0.800000,0.585355,0.785355,0.585355,0.785355,$1*%
%AMFreePoly1*
4,1,37,0.012350,0.794884,0.074210,0.794507,0.088231,0.792412,0.224052,0.751793,0.236921,0.745846,0.355883,0.668739,0.366566,0.659420,0.459104,0.552023,0.466742,0.540080,0.525419,0.411028,0.529398,0.397421,0.549495,0.257088,0.550000,0.250000,0.550000,-0.250000,0.549996,-0.250610,0.549847,-0.262826,0.549158,-0.270511,0.525638,-0.410312,0.521328,-0.423818,0.459516,-0.551397,
0.451589,-0.563150,0.356454,-0.668254,0.345546,-0.677309,0.224736,-0.751486,0.211726,-0.757116,0.074953,-0.794405,0.060885,-0.796158,0.011462,-0.795252,0.000000,-0.800000,-0.550000,-0.800000,-0.585355,-0.785355,-0.600000,-0.750000,-0.600000,0.750000,-0.585355,0.785355,-0.550000,0.800000,0.000000,0.800000,0.012350,0.794884,0.012350,0.794884,$1*%
G04 Aperture macros list end*
%ADD10RoundRect,0.050000X0.850000X-0.850000X0.850000X0.850000X-0.850000X0.850000X-0.850000X-0.850000X0*%
%ADD11O,1.800000X1.800000*%
%ADD12C,3.300000*%
%ADD13RoundRect,0.101600X-0.762000X-2.540000X0.762000X-2.540000X0.762000X2.540000X-0.762000X2.540000X0*%
%ADD14RoundRect,0.050000X0.850000X0.850000X-0.850000X0.850000X-0.850000X-0.850000X0.850000X-0.850000X0*%
%ADD15RoundRect,0.050000X-0.850000X-0.850000X0.850000X-0.850000X0.850000X0.850000X-0.850000X0.850000X0*%
%ADD16C,2.100000*%
%ADD17RoundRect,0.050000X-0.850000X0.850000X-0.850000X-0.850000X0.850000X-0.850000X0.850000X0.850000X0*%
%ADD18FreePoly0,90.000000*%
%ADD19RoundRect,0.050000X0.750000X-0.500000X0.750000X0.500000X-0.750000X0.500000X-0.750000X-0.500000X0*%
%ADD20FreePoly1,90.000000*%
%ADD21FreePoly0,270.000000*%
%ADD22RoundRect,0.050000X-0.750000X0.500000X-0.750000X-0.500000X0.750000X-0.500000X0.750000X0.500000X0*%
%ADD23FreePoly1,270.000000*%
G04 APERTURE END LIST*
D10*
%TO.C,JP5*%
X187325000Y-102870000D03*
D11*
X189865000Y-102870000D03*
%TD*%
D10*
%TO.C,JP22*%
X125730000Y-83820000D03*
D11*
X128270000Y-83820000D03*
X130810000Y-83820000D03*
%TD*%
%TO.C,J13*%
X189865000Y-133985000D03*
%TD*%
D12*
%TO.C,H2*%
X112400000Y-88900000D03*
%TD*%
D13*
%TO.C,EDGE1*%
X124460000Y-142240000D03*
X127000000Y-142240000D03*
X129540000Y-142240000D03*
X132080000Y-142240000D03*
X137160000Y-142240000D03*
X139700000Y-142240000D03*
X142240000Y-142240000D03*
X144780000Y-142240000D03*
X147320000Y-142240000D03*
X149860000Y-142240000D03*
X152400000Y-142240000D03*
X154940000Y-142240000D03*
X157480000Y-142240000D03*
X160020000Y-142240000D03*
X162560000Y-142240000D03*
X165100000Y-142240000D03*
X167640000Y-142240000D03*
X170180000Y-142240000D03*
X172720000Y-142240000D03*
X175260000Y-142240000D03*
X177800000Y-142240000D03*
X180340000Y-142240000D03*
X182880000Y-142240000D03*
X185420000Y-142240000D03*
X187960000Y-142240000D03*
X190500000Y-142240000D03*
X193040000Y-142240000D03*
%TD*%
D14*
%TO.C,JP32*%
X129540000Y-127508000D03*
D11*
X129540000Y-124968000D03*
%TD*%
D15*
%TO.C,JP31*%
X129540000Y-116835000D03*
D11*
X129540000Y-119375000D03*
%TD*%
D16*
%TO.C,BUT1*%
X176429000Y-56305000D03*
X176429000Y-49805000D03*
X171929000Y-56305000D03*
X171929000Y-49805000D03*
%TD*%
D14*
%TO.C,JP45*%
X119945000Y-99300000D03*
D11*
X119945000Y-96760000D03*
X119945000Y-94220000D03*
%TD*%
D14*
%TO.C,J12*%
X196615000Y-102870000D03*
D11*
X199155000Y-102870000D03*
%TD*%
D10*
%TO.C,JP12*%
X160020000Y-55880000D03*
D11*
X162560000Y-55880000D03*
%TD*%
D17*
%TO.C,J6*%
X196215000Y-78740000D03*
D11*
X193675000Y-78740000D03*
X191135000Y-78740000D03*
X188595000Y-78740000D03*
X186055000Y-78740000D03*
X183515000Y-78740000D03*
%TD*%
D16*
%TO.C,BUT2*%
X176429000Y-73810000D03*
X176429000Y-67310000D03*
X171929000Y-67310000D03*
X171929000Y-73810000D03*
%TD*%
D14*
%TO.C,JP43*%
X119945000Y-117580000D03*
D11*
X119945000Y-115040000D03*
X119945000Y-112500000D03*
%TD*%
D14*
%TO.C,JP44*%
X119945000Y-108440000D03*
D11*
X119945000Y-105900000D03*
X119945000Y-103360000D03*
%TD*%
D10*
%TO.C,J1*%
X154305000Y-128905000D03*
D11*
X156845000Y-128905000D03*
X159385000Y-128905000D03*
X161925000Y-128905000D03*
X164465000Y-128905000D03*
X167005000Y-128905000D03*
X154305000Y-126365000D03*
X156845000Y-126365000D03*
X159385000Y-126365000D03*
X161925000Y-126365000D03*
X164465000Y-126365000D03*
X167005000Y-126365000D03*
%TD*%
D10*
%TO.C,J2*%
X177165000Y-128905000D03*
D11*
X179705000Y-128905000D03*
X182245000Y-128905000D03*
X184785000Y-128905000D03*
X187325000Y-128905000D03*
X189865000Y-128905000D03*
X177165000Y-126365000D03*
X179705000Y-126365000D03*
X182245000Y-126365000D03*
X184785000Y-126365000D03*
X187325000Y-126365000D03*
X189865000Y-126365000D03*
%TD*%
D14*
%TO.C,J5*%
X164465000Y-76200000D03*
D11*
X164465000Y-73660000D03*
X164465000Y-71120000D03*
X164465000Y-68580000D03*
X164465000Y-66040000D03*
X164465000Y-63500000D03*
%TD*%
D14*
%TO.C,J10*%
X172085000Y-128905000D03*
D11*
X172085000Y-126365000D03*
%TD*%
D14*
%TO.C,J7*%
X206375000Y-132715000D03*
D11*
X206375000Y-130175000D03*
X206375000Y-127635000D03*
%TD*%
D14*
%TO.C,RPI1*%
X134620000Y-129540000D03*
D11*
X137160000Y-129540000D03*
X134620000Y-127000000D03*
X137160000Y-127000000D03*
X134620000Y-124460000D03*
X137160000Y-124460000D03*
X134620000Y-121920000D03*
X137160000Y-121920000D03*
X134620000Y-119380000D03*
X137160000Y-119380000D03*
X134620000Y-116840000D03*
X137160000Y-116840000D03*
X134620000Y-114300000D03*
X137160000Y-114300000D03*
X134620000Y-111760000D03*
X137160000Y-111760000D03*
X134620000Y-109220000D03*
X137160000Y-109220000D03*
X134620000Y-106680000D03*
X137160000Y-106680000D03*
X134620000Y-104140000D03*
X137160000Y-104140000D03*
X134620000Y-101600000D03*
X137160000Y-101600000D03*
X134620000Y-99060000D03*
X137160000Y-99060000D03*
X134620000Y-96520000D03*
X137160000Y-96520000D03*
X134620000Y-93980000D03*
X137160000Y-93980000D03*
X134620000Y-91440000D03*
X137160000Y-91440000D03*
X134620000Y-88900000D03*
X137160000Y-88900000D03*
X134620000Y-86360000D03*
X137160000Y-86360000D03*
X134620000Y-83820000D03*
X137160000Y-83820000D03*
X134620000Y-81280000D03*
X137160000Y-81280000D03*
%TD*%
D12*
%TO.C,H1*%
X205105000Y-48895000D03*
%TD*%
D14*
%TO.C,JP42*%
X119945000Y-126720000D03*
D11*
X119945000Y-124180000D03*
X119945000Y-121640000D03*
%TD*%
D12*
%TO.C,H3*%
X205100000Y-141300000D03*
%TD*%
D15*
%TO.C,J9*%
X206367200Y-65405000D03*
D11*
X206367200Y-67945000D03*
X206367200Y-70485000D03*
X206367200Y-73025000D03*
X206367200Y-75565000D03*
%TD*%
D12*
%TO.C,H4*%
X112400000Y-141300000D03*
%TD*%
D14*
%TO.C,JP23*%
X151130000Y-69835000D03*
D11*
X151130000Y-67295000D03*
X151130000Y-64755000D03*
%TD*%
D10*
%TO.C,JP21*%
X115570000Y-83820000D03*
D11*
X118110000Y-83820000D03*
X120650000Y-83820000D03*
%TD*%
D14*
%TO.C,J3*%
X196615000Y-85090000D03*
D11*
X196615000Y-87630000D03*
X196615000Y-90170000D03*
X196615000Y-92710000D03*
X196615000Y-95250000D03*
X196615000Y-97790000D03*
X199155000Y-85090000D03*
X199155000Y-87630000D03*
X199155000Y-90170000D03*
X199155000Y-92710000D03*
X199155000Y-95250000D03*
X199155000Y-97790000D03*
%TD*%
D14*
%TO.C,J8*%
X142875000Y-106045000D03*
D11*
X142875000Y-103505000D03*
X142875000Y-100965000D03*
X142875000Y-98425000D03*
%TD*%
D14*
%TO.C,J4*%
X196615000Y-107950000D03*
D11*
X196615000Y-110490000D03*
X196615000Y-113030000D03*
X196615000Y-115570000D03*
X196615000Y-118110000D03*
X196615000Y-120650000D03*
X199155000Y-107950000D03*
X199155000Y-110490000D03*
X199155000Y-113030000D03*
X199155000Y-115570000D03*
X199155000Y-118110000D03*
X199155000Y-120650000D03*
%TD*%
D10*
%TO.C,JP11*%
X145415000Y-55880000D03*
D11*
X147955000Y-55880000D03*
X150495000Y-55880000D03*
%TD*%
D14*
%TO.C,JP41*%
X119945000Y-135845000D03*
D11*
X119945000Y-133305000D03*
X119945000Y-130765000D03*
%TD*%
D18*
%TO.C,JPS1*%
X146050000Y-109250000D03*
D19*
X146050000Y-107950000D03*
D20*
X146050000Y-106650000D03*
%TD*%
D21*
%TO.C,JPS2*%
X146050000Y-100935000D03*
D22*
X146050000Y-102235000D03*
D23*
X146050000Y-103535000D03*
%TD*%
M02*
