%FSLAX45Y45*%
G04 Gerber Fmt 4.5, Leading zero omitted, Abs format (unit mm)*
G04 Created by KiCad (PCBNEW 6.0.0-d3dd2cf0fa~116~ubuntu20.04.1) date 2022-03-24 22:15:44*
%MOMM*%
%LPD*%
G01*
G04 APERTURE LIST*
%TA.AperFunction,Profile*%
%ADD10C,0.050000*%
%TD*%
%ADD11C,0.200000*%
%ADD12C,0.320000*%
G04 APERTURE END LIST*
D10*
X13957300Y-7293870D02*
G75*
G03*
X14033500Y-7217670I0J76200D01*
G01*
X14109700Y-4494970D02*
G75*
G03*
X14033500Y-4571170I0J-76200D01*
G01*
X10951200Y-7293870D02*
G75*
G03*
X10875000Y-7370070I0J-76200D01*
G01*
X10875000Y-14417675D02*
G75*
G03*
X10951200Y-14493875I76200J0D01*
G01*
X20796300Y-14493875D02*
G75*
G03*
X20872500Y-14417675I0J76200D01*
G01*
X20872500Y-4571170D02*
G75*
G03*
X20796300Y-4494970I-76200J0D01*
G01*
X20872500Y-4571170D02*
X20872500Y-14417675D01*
X14109700Y-4494970D02*
X20796300Y-4494970D01*
X10951200Y-14493875D02*
X20796300Y-14493875D01*
X14033500Y-7217670D02*
X14033500Y-4571170D01*
X10875000Y-14417675D02*
X10875000Y-7370070D01*
X10951200Y-7293870D02*
X13957300Y-7293870D01*
D11*
D12*
X11080000Y-8730000D02*
X11400000Y-9050000D01*
X11400000Y-8730000D02*
X11080000Y-9050000D01*
X11080000Y-13970000D02*
X11400000Y-14290000D01*
X11400000Y-13970000D02*
X11080000Y-14290000D01*
X20350000Y-13970000D02*
X20670000Y-14290000D01*
X20670000Y-13970000D02*
X20350000Y-14290000D01*
X20350500Y-4729500D02*
X20670500Y-5049500D01*
X20670500Y-4729500D02*
X20350500Y-5049500D01*
D11*
X11130119Y-14806851D02*
X11130119Y-14606851D01*
X11177738Y-14606851D01*
X11206309Y-14616375D01*
X11225357Y-14635423D01*
X11234881Y-14654470D01*
X11244405Y-14692565D01*
X11244405Y-14721137D01*
X11234881Y-14759232D01*
X11225357Y-14778280D01*
X11206309Y-14797327D01*
X11177738Y-14806851D01*
X11130119Y-14806851D01*
X11330119Y-14806851D02*
X11330119Y-14673518D01*
X11330119Y-14711613D02*
X11339643Y-14692565D01*
X11349167Y-14683042D01*
X11368214Y-14673518D01*
X11387262Y-14673518D01*
X11453928Y-14806851D02*
X11453928Y-14673518D01*
X11453928Y-14606851D02*
X11444405Y-14616375D01*
X11453928Y-14625899D01*
X11463452Y-14616375D01*
X11453928Y-14606851D01*
X11453928Y-14625899D01*
X11577738Y-14806851D02*
X11558690Y-14797327D01*
X11549167Y-14778280D01*
X11549167Y-14606851D01*
X11682500Y-14806851D02*
X11663452Y-14797327D01*
X11653928Y-14778280D01*
X11653928Y-14606851D01*
X11911071Y-14806851D02*
X11911071Y-14606851D01*
X11977738Y-14749708D01*
X12044405Y-14606851D01*
X12044405Y-14806851D01*
X12225357Y-14806851D02*
X12225357Y-14702089D01*
X12215833Y-14683042D01*
X12196786Y-14673518D01*
X12158690Y-14673518D01*
X12139643Y-14683042D01*
X12225357Y-14797327D02*
X12206309Y-14806851D01*
X12158690Y-14806851D01*
X12139643Y-14797327D01*
X12130119Y-14778280D01*
X12130119Y-14759232D01*
X12139643Y-14740184D01*
X12158690Y-14730661D01*
X12206309Y-14730661D01*
X12225357Y-14721137D01*
X12320595Y-14673518D02*
X12320595Y-14873518D01*
X12320595Y-14683042D02*
X12339643Y-14673518D01*
X12377738Y-14673518D01*
X12396786Y-14683042D01*
X12406309Y-14692565D01*
X12415833Y-14711613D01*
X12415833Y-14768756D01*
X12406309Y-14787803D01*
X12396786Y-14797327D01*
X12377738Y-14806851D01*
X12339643Y-14806851D01*
X12320595Y-14797327D01*
X12501548Y-14787803D02*
X12511071Y-14797327D01*
X12501548Y-14806851D01*
X12492024Y-14797327D01*
X12501548Y-14787803D01*
X12501548Y-14806851D01*
X12501548Y-14683042D02*
X12511071Y-14692565D01*
X12501548Y-14702089D01*
X12492024Y-14692565D01*
X12501548Y-14683042D01*
X12501548Y-14702089D01*
X10672500Y-15036375D02*
X10872500Y-15236375D01*
X10872500Y-15036375D02*
X10672500Y-15236375D01*
X11111071Y-15026851D02*
X11234881Y-15026851D01*
X11168214Y-15103042D01*
X11196786Y-15103042D01*
X11215833Y-15112565D01*
X11225357Y-15122089D01*
X11234881Y-15141137D01*
X11234881Y-15188756D01*
X11225357Y-15207803D01*
X11215833Y-15217327D01*
X11196786Y-15226851D01*
X11139643Y-15226851D01*
X11120595Y-15217327D01*
X11111071Y-15207803D01*
X11320595Y-15207803D02*
X11330119Y-15217327D01*
X11320595Y-15226851D01*
X11311071Y-15217327D01*
X11320595Y-15207803D01*
X11320595Y-15226851D01*
X11406309Y-15045899D02*
X11415833Y-15036375D01*
X11434881Y-15026851D01*
X11482500Y-15026851D01*
X11501548Y-15036375D01*
X11511071Y-15045899D01*
X11520595Y-15064946D01*
X11520595Y-15083994D01*
X11511071Y-15112565D01*
X11396786Y-15226851D01*
X11520595Y-15226851D01*
X11644405Y-15026851D02*
X11663452Y-15026851D01*
X11682500Y-15036375D01*
X11692024Y-15045899D01*
X11701548Y-15064946D01*
X11711071Y-15103042D01*
X11711071Y-15150661D01*
X11701548Y-15188756D01*
X11692024Y-15207803D01*
X11682500Y-15217327D01*
X11663452Y-15226851D01*
X11644405Y-15226851D01*
X11625357Y-15217327D01*
X11615833Y-15207803D01*
X11606309Y-15188756D01*
X11596786Y-15150661D01*
X11596786Y-15103042D01*
X11606309Y-15064946D01*
X11615833Y-15045899D01*
X11625357Y-15036375D01*
X11644405Y-15026851D01*
X11834881Y-15026851D02*
X11853928Y-15026851D01*
X11872976Y-15036375D01*
X11882500Y-15045899D01*
X11892024Y-15064946D01*
X11901548Y-15103042D01*
X11901548Y-15150661D01*
X11892024Y-15188756D01*
X11882500Y-15207803D01*
X11872976Y-15217327D01*
X11853928Y-15226851D01*
X11834881Y-15226851D01*
X11815833Y-15217327D01*
X11806309Y-15207803D01*
X11796786Y-15188756D01*
X11787262Y-15150661D01*
X11787262Y-15103042D01*
X11796786Y-15064946D01*
X11806309Y-15045899D01*
X11815833Y-15036375D01*
X11834881Y-15026851D01*
X11987262Y-15226851D02*
X11987262Y-15093518D01*
X11987262Y-15112565D02*
X11996786Y-15103042D01*
X12015833Y-15093518D01*
X12044405Y-15093518D01*
X12063452Y-15103042D01*
X12072976Y-15122089D01*
X12072976Y-15226851D01*
X12072976Y-15122089D02*
X12082500Y-15103042D01*
X12101548Y-15093518D01*
X12130119Y-15093518D01*
X12149167Y-15103042D01*
X12158690Y-15122089D01*
X12158690Y-15226851D01*
X12253928Y-15226851D02*
X12253928Y-15093518D01*
X12253928Y-15112565D02*
X12263452Y-15103042D01*
X12282500Y-15093518D01*
X12311071Y-15093518D01*
X12330119Y-15103042D01*
X12339643Y-15122089D01*
X12339643Y-15226851D01*
X12339643Y-15122089D02*
X12349167Y-15103042D01*
X12368214Y-15093518D01*
X12396786Y-15093518D01*
X12415833Y-15103042D01*
X12425357Y-15122089D01*
X12425357Y-15226851D01*
X12815833Y-15017327D02*
X12644405Y-15274470D01*
X13072976Y-15026851D02*
X13092024Y-15026851D01*
X13111071Y-15036375D01*
X13120595Y-15045899D01*
X13130119Y-15064946D01*
X13139643Y-15103042D01*
X13139643Y-15150661D01*
X13130119Y-15188756D01*
X13120595Y-15207803D01*
X13111071Y-15217327D01*
X13092024Y-15226851D01*
X13072976Y-15226851D01*
X13053928Y-15217327D01*
X13044405Y-15207803D01*
X13034881Y-15188756D01*
X13025357Y-15150661D01*
X13025357Y-15103042D01*
X13034881Y-15064946D01*
X13044405Y-15045899D01*
X13053928Y-15036375D01*
X13072976Y-15026851D01*
X13225357Y-15207803D02*
X13234881Y-15217327D01*
X13225357Y-15226851D01*
X13215833Y-15217327D01*
X13225357Y-15207803D01*
X13225357Y-15226851D01*
X13425357Y-15226851D02*
X13311071Y-15226851D01*
X13368214Y-15226851D02*
X13368214Y-15026851D01*
X13349167Y-15055423D01*
X13330119Y-15074470D01*
X13311071Y-15083994D01*
X13501548Y-15045899D02*
X13511071Y-15036375D01*
X13530119Y-15026851D01*
X13577738Y-15026851D01*
X13596786Y-15036375D01*
X13606309Y-15045899D01*
X13615833Y-15064946D01*
X13615833Y-15083994D01*
X13606309Y-15112565D01*
X13492024Y-15226851D01*
X13615833Y-15226851D01*
X13787262Y-15026851D02*
X13749167Y-15026851D01*
X13730119Y-15036375D01*
X13720595Y-15045899D01*
X13701548Y-15074470D01*
X13692024Y-15112565D01*
X13692024Y-15188756D01*
X13701548Y-15207803D01*
X13711071Y-15217327D01*
X13730119Y-15226851D01*
X13768214Y-15226851D01*
X13787262Y-15217327D01*
X13796786Y-15207803D01*
X13806309Y-15188756D01*
X13806309Y-15141137D01*
X13796786Y-15122089D01*
X13787262Y-15112565D01*
X13768214Y-15103042D01*
X13730119Y-15103042D01*
X13711071Y-15112565D01*
X13701548Y-15122089D01*
X13692024Y-15141137D01*
X13930119Y-15026851D02*
X13949167Y-15026851D01*
X13968214Y-15036375D01*
X13977738Y-15045899D01*
X13987262Y-15064946D01*
X13996786Y-15103042D01*
X13996786Y-15150661D01*
X13987262Y-15188756D01*
X13977738Y-15207803D01*
X13968214Y-15217327D01*
X13949167Y-15226851D01*
X13930119Y-15226851D01*
X13911071Y-15217327D01*
X13901548Y-15207803D01*
X13892024Y-15188756D01*
X13882500Y-15150661D01*
X13882500Y-15103042D01*
X13892024Y-15064946D01*
X13901548Y-15045899D01*
X13911071Y-15036375D01*
X13930119Y-15026851D01*
X14072976Y-15026851D02*
X14072976Y-15064946D01*
X14149167Y-15026851D02*
X14149167Y-15064946D01*
X14444405Y-15303042D02*
X14434881Y-15293518D01*
X14415833Y-15264946D01*
X14406309Y-15245899D01*
X14396786Y-15217327D01*
X14387262Y-15169708D01*
X14387262Y-15131613D01*
X14396786Y-15083994D01*
X14406309Y-15055423D01*
X14415833Y-15036375D01*
X14434881Y-15007803D01*
X14444405Y-14998280D01*
X14606309Y-15093518D02*
X14606309Y-15226851D01*
X14558690Y-15017327D02*
X14511071Y-15160184D01*
X14634881Y-15160184D01*
X14863452Y-15226851D02*
X14863452Y-15026851D01*
X14949167Y-15226851D02*
X14949167Y-15122089D01*
X14939643Y-15103042D01*
X14920595Y-15093518D01*
X14892024Y-15093518D01*
X14872976Y-15103042D01*
X14863452Y-15112565D01*
X15072976Y-15226851D02*
X15053928Y-15217327D01*
X15044405Y-15207803D01*
X15034881Y-15188756D01*
X15034881Y-15131613D01*
X15044405Y-15112565D01*
X15053928Y-15103042D01*
X15072976Y-15093518D01*
X15101548Y-15093518D01*
X15120595Y-15103042D01*
X15130119Y-15112565D01*
X15139643Y-15131613D01*
X15139643Y-15188756D01*
X15130119Y-15207803D01*
X15120595Y-15217327D01*
X15101548Y-15226851D01*
X15072976Y-15226851D01*
X15253928Y-15226851D02*
X15234881Y-15217327D01*
X15225357Y-15198280D01*
X15225357Y-15026851D01*
X15406309Y-15217327D02*
X15387262Y-15226851D01*
X15349167Y-15226851D01*
X15330119Y-15217327D01*
X15320595Y-15198280D01*
X15320595Y-15122089D01*
X15330119Y-15103042D01*
X15349167Y-15093518D01*
X15387262Y-15093518D01*
X15406309Y-15103042D01*
X15415833Y-15122089D01*
X15415833Y-15141137D01*
X15320595Y-15160184D01*
X15492024Y-15217327D02*
X15511071Y-15226851D01*
X15549167Y-15226851D01*
X15568214Y-15217327D01*
X15577738Y-15198280D01*
X15577738Y-15188756D01*
X15568214Y-15169708D01*
X15549167Y-15160184D01*
X15520595Y-15160184D01*
X15501548Y-15150661D01*
X15492024Y-15131613D01*
X15492024Y-15122089D01*
X15501548Y-15103042D01*
X15520595Y-15093518D01*
X15549167Y-15093518D01*
X15568214Y-15103042D01*
X15644405Y-15303042D02*
X15653928Y-15293518D01*
X15672976Y-15264946D01*
X15682500Y-15245899D01*
X15692024Y-15217327D01*
X15701548Y-15169708D01*
X15701548Y-15131613D01*
X15692024Y-15083994D01*
X15682500Y-15055423D01*
X15672976Y-15036375D01*
X15653928Y-15007803D01*
X15644405Y-14998280D01*
X16006309Y-15303042D02*
X15996786Y-15293518D01*
X15977738Y-15264946D01*
X15968214Y-15245899D01*
X15958690Y-15217327D01*
X15949167Y-15169708D01*
X15949167Y-15131613D01*
X15958690Y-15083994D01*
X15968214Y-15055423D01*
X15977738Y-15036375D01*
X15996786Y-15007803D01*
X16006309Y-14998280D01*
X16082500Y-15093518D02*
X16082500Y-15226851D01*
X16082500Y-15112565D02*
X16092024Y-15103042D01*
X16111071Y-15093518D01*
X16139643Y-15093518D01*
X16158690Y-15103042D01*
X16168214Y-15122089D01*
X16168214Y-15226851D01*
X16292024Y-15226851D02*
X16272976Y-15217327D01*
X16263452Y-15207803D01*
X16253928Y-15188756D01*
X16253928Y-15131613D01*
X16263452Y-15112565D01*
X16272976Y-15103042D01*
X16292024Y-15093518D01*
X16320595Y-15093518D01*
X16339643Y-15103042D01*
X16349167Y-15112565D01*
X16358690Y-15131613D01*
X16358690Y-15188756D01*
X16349167Y-15207803D01*
X16339643Y-15217327D01*
X16320595Y-15226851D01*
X16292024Y-15226851D01*
X16415833Y-15093518D02*
X16492024Y-15093518D01*
X16444405Y-15026851D02*
X16444405Y-15198280D01*
X16453928Y-15217327D01*
X16472976Y-15226851D01*
X16492024Y-15226851D01*
X16711071Y-15093518D02*
X16711071Y-15293518D01*
X16711071Y-15103042D02*
X16730119Y-15093518D01*
X16768214Y-15093518D01*
X16787262Y-15103042D01*
X16796786Y-15112565D01*
X16806310Y-15131613D01*
X16806310Y-15188756D01*
X16796786Y-15207803D01*
X16787262Y-15217327D01*
X16768214Y-15226851D01*
X16730119Y-15226851D01*
X16711071Y-15217327D01*
X16920595Y-15226851D02*
X16901548Y-15217327D01*
X16892024Y-15198280D01*
X16892024Y-15026851D01*
X17082500Y-15226851D02*
X17082500Y-15122089D01*
X17072976Y-15103042D01*
X17053929Y-15093518D01*
X17015833Y-15093518D01*
X16996786Y-15103042D01*
X17082500Y-15217327D02*
X17063452Y-15226851D01*
X17015833Y-15226851D01*
X16996786Y-15217327D01*
X16987262Y-15198280D01*
X16987262Y-15179232D01*
X16996786Y-15160184D01*
X17015833Y-15150661D01*
X17063452Y-15150661D01*
X17082500Y-15141137D01*
X17149167Y-15093518D02*
X17225357Y-15093518D01*
X17177738Y-15026851D02*
X17177738Y-15198280D01*
X17187262Y-15217327D01*
X17206310Y-15226851D01*
X17225357Y-15226851D01*
X17368214Y-15217327D02*
X17349167Y-15226851D01*
X17311071Y-15226851D01*
X17292024Y-15217327D01*
X17282500Y-15198280D01*
X17282500Y-15122089D01*
X17292024Y-15103042D01*
X17311071Y-15093518D01*
X17349167Y-15093518D01*
X17368214Y-15103042D01*
X17377738Y-15122089D01*
X17377738Y-15141137D01*
X17282500Y-15160184D01*
X17549167Y-15226851D02*
X17549167Y-15026851D01*
X17549167Y-15217327D02*
X17530119Y-15226851D01*
X17492024Y-15226851D01*
X17472976Y-15217327D01*
X17463452Y-15207803D01*
X17453929Y-15188756D01*
X17453929Y-15131613D01*
X17463452Y-15112565D01*
X17472976Y-15103042D01*
X17492024Y-15093518D01*
X17530119Y-15093518D01*
X17549167Y-15103042D01*
X17625357Y-15303042D02*
X17634881Y-15293518D01*
X17653929Y-15264946D01*
X17663452Y-15245899D01*
X17672976Y-15217327D01*
X17682500Y-15169708D01*
X17682500Y-15131613D01*
X17672976Y-15083994D01*
X17663452Y-15055423D01*
X17653929Y-15036375D01*
X17634881Y-15007803D01*
X17625357Y-14998280D01*
M02*
