%FSLAX45Y45*%
G04 Gerber Fmt 4.5, Leading zero omitted, Abs format (unit mm)*
G04 Created by KiCad (PCBNEW 6.0.0-d3dd2cf0fa~116~ubuntu20.04.1) date 2022-03-24 22:15:44*
%MOMM*%
%LPD*%
G01*
G04 APERTURE LIST*
%TA.AperFunction,Profile*%
%ADD10C,0.050000*%
%TD*%
%ADD11C,0.200000*%
%ADD12C,0.040000*%
%ADD13C,0.100000*%
%ADD14C,0.110000*%
G04 APERTURE END LIST*
D10*
X13957300Y-7293870D02*
G75*
G03*
X14033500Y-7217670I0J76200D01*
G01*
X14109700Y-4494970D02*
G75*
G03*
X14033500Y-4571170I0J-76200D01*
G01*
X10951200Y-7293870D02*
G75*
G03*
X10875000Y-7370070I0J-76200D01*
G01*
X10875000Y-14417675D02*
G75*
G03*
X10951200Y-14493875I76200J0D01*
G01*
X20796300Y-14493875D02*
G75*
G03*
X20872500Y-14417675I0J76200D01*
G01*
X20872500Y-4571170D02*
G75*
G03*
X20796300Y-4494970I-76200J0D01*
G01*
X20872500Y-4571170D02*
X20872500Y-14417675D01*
X14109700Y-4494970D02*
X20796300Y-4494970D01*
X10951200Y-14493875D02*
X20796300Y-14493875D01*
X14033500Y-7217670D02*
X14033500Y-4571170D01*
X10875000Y-14417675D02*
X10875000Y-7370070D01*
X10951200Y-7293870D02*
X13957300Y-7293870D01*
D11*
D12*
X11791000Y-9187500D02*
X11831000Y-9227500D01*
X11831000Y-9187500D02*
X11791000Y-9227500D01*
X12451400Y-10775000D02*
X12491400Y-10815000D01*
X12491400Y-10775000D02*
X12451400Y-10815000D01*
X12667300Y-10978200D02*
X12707300Y-11018200D01*
X12707300Y-10978200D02*
X12667300Y-11018200D01*
X12692700Y-11143300D02*
X12732700Y-11183300D01*
X12732700Y-11143300D02*
X12692700Y-11183300D01*
X12718100Y-13454700D02*
X12758100Y-13494700D01*
X12758100Y-13454700D02*
X12718100Y-13494700D01*
X12758740Y-13602020D02*
X12798740Y-13642020D01*
X12798740Y-13602020D02*
X12758740Y-13642020D01*
X12758741Y-13702290D02*
X12798741Y-13742290D01*
X12798741Y-13702290D02*
X12758741Y-13742290D01*
X12807000Y-7781230D02*
X12847000Y-7821230D01*
X12847000Y-7781230D02*
X12807000Y-7821230D01*
X12908600Y-13772200D02*
X12948600Y-13812200D01*
X12948600Y-13772200D02*
X12908600Y-13812200D01*
X12997500Y-13594400D02*
X13037500Y-13634400D01*
X13037500Y-13594400D02*
X12997500Y-13634400D01*
X13632500Y-13695278D02*
X13672500Y-13735278D01*
X13672500Y-13695278D02*
X13632500Y-13735278D01*
X14077000Y-11918000D02*
X14117000Y-11958000D01*
X14117000Y-11918000D02*
X14077000Y-11958000D01*
X14140500Y-7936450D02*
X14180500Y-7976450D01*
X14180500Y-7936450D02*
X14140500Y-7976450D01*
X14359083Y-12798756D02*
X14399083Y-12838756D01*
X14399083Y-12798756D02*
X14359083Y-12838756D01*
X14394500Y-8362000D02*
X14434500Y-8402000D01*
X14434500Y-8362000D02*
X14394500Y-8402000D01*
X14431853Y-12697780D02*
X14471853Y-12737780D01*
X14471853Y-12697780D02*
X14431853Y-12737780D01*
X14839000Y-8806500D02*
X14879000Y-8846500D01*
X14879000Y-8806500D02*
X14839000Y-8846500D01*
X15029500Y-11918000D02*
X15069500Y-11958000D01*
X15069500Y-11918000D02*
X15029500Y-11958000D01*
X15581031Y-10628031D02*
X15621031Y-10668031D01*
X15621031Y-10628031D02*
X15581031Y-10668031D01*
X16032800Y-12362500D02*
X16072800Y-12402500D01*
X16072800Y-12362500D02*
X16032800Y-12402500D01*
X16042029Y-13661371D02*
X16082029Y-13701371D01*
X16082029Y-13661371D02*
X16042029Y-13701371D01*
X16553500Y-7854000D02*
X16593500Y-7894000D01*
X16593500Y-7854000D02*
X16553500Y-7894000D01*
X16744000Y-11355770D02*
X16784000Y-11395770D01*
X16784000Y-11355770D02*
X16744000Y-11395770D01*
X16751006Y-10488594D02*
X16791006Y-10528594D01*
X16791006Y-10488594D02*
X16751006Y-10528594D01*
X16782100Y-13480100D02*
X16822100Y-13520100D01*
X16822100Y-13480100D02*
X16782100Y-13520100D01*
X16934500Y-8298500D02*
X16974500Y-8338500D01*
X16974500Y-8298500D02*
X16934500Y-8338500D01*
X16998000Y-7854000D02*
X17038000Y-7894000D01*
X17038000Y-7854000D02*
X16998000Y-7894000D01*
X17023400Y-10419400D02*
X17063400Y-10459400D01*
X17063400Y-10419400D02*
X17023400Y-10459400D01*
X17023400Y-11473500D02*
X17063400Y-11513500D01*
X17063400Y-11473500D02*
X17023400Y-11513500D01*
X17226600Y-13670600D02*
X17266600Y-13710600D01*
X17266600Y-13670600D02*
X17226600Y-13710600D01*
X18699800Y-11460800D02*
X18739800Y-11500800D01*
X18739800Y-11460800D02*
X18699800Y-11500800D01*
X18852200Y-12426000D02*
X18892200Y-12466000D01*
X18892200Y-12426000D02*
X18852200Y-12466000D01*
X18903000Y-11308400D02*
X18943000Y-11348400D01*
X18943000Y-11308400D02*
X18903000Y-11348400D01*
X19309400Y-9033314D02*
X19349400Y-9073314D01*
X19349400Y-9033314D02*
X19309400Y-9073314D01*
X19944400Y-12718100D02*
X19984400Y-12758100D01*
X19984400Y-12718100D02*
X19944400Y-12758100D01*
D13*
X11607000Y-8382000D02*
G75*
G03*
X11607000Y-8382000I-50000J0D01*
G01*
X11861000Y-8382000D02*
G75*
G03*
X11861000Y-8382000I-50000J0D01*
G01*
X12044500Y-9422000D02*
G75*
G03*
X12044500Y-9422000I-50000J0D01*
G01*
X12044500Y-9676000D02*
G75*
G03*
X12044500Y-9676000I-50000J0D01*
G01*
X12044500Y-9930000D02*
G75*
G03*
X12044500Y-9930000I-50000J0D01*
G01*
X12044500Y-10336000D02*
G75*
G03*
X12044500Y-10336000I-50000J0D01*
G01*
X12044500Y-10590000D02*
G75*
G03*
X12044500Y-10590000I-50000J0D01*
G01*
X12044500Y-10844000D02*
G75*
G03*
X12044500Y-10844000I-50000J0D01*
G01*
X12044500Y-11250000D02*
G75*
G03*
X12044500Y-11250000I-50000J0D01*
G01*
X12044500Y-11504000D02*
G75*
G03*
X12044500Y-11504000I-50000J0D01*
G01*
X12044500Y-11758000D02*
G75*
G03*
X12044500Y-11758000I-50000J0D01*
G01*
X12044500Y-12164000D02*
G75*
G03*
X12044500Y-12164000I-50000J0D01*
G01*
X12044500Y-12418000D02*
G75*
G03*
X12044500Y-12418000I-50000J0D01*
G01*
X12044500Y-12672000D02*
G75*
G03*
X12044500Y-12672000I-50000J0D01*
G01*
X12044500Y-13076500D02*
G75*
G03*
X12044500Y-13076500I-50000J0D01*
G01*
X12044500Y-13330500D02*
G75*
G03*
X12044500Y-13330500I-50000J0D01*
G01*
X12044500Y-13584500D02*
G75*
G03*
X12044500Y-13584500I-50000J0D01*
G01*
X12115000Y-8382000D02*
G75*
G03*
X12115000Y-8382000I-50000J0D01*
G01*
X12623000Y-8382000D02*
G75*
G03*
X12623000Y-8382000I-50000J0D01*
G01*
X12877000Y-8382000D02*
G75*
G03*
X12877000Y-8382000I-50000J0D01*
G01*
X13131000Y-8382000D02*
G75*
G03*
X13131000Y-8382000I-50000J0D01*
G01*
X13512000Y-8128000D02*
G75*
G03*
X13512000Y-8128000I-50000J0D01*
G01*
X13512000Y-8382000D02*
G75*
G03*
X13512000Y-8382000I-50000J0D01*
G01*
X13512000Y-8636000D02*
G75*
G03*
X13512000Y-8636000I-50000J0D01*
G01*
X13512000Y-8890000D02*
G75*
G03*
X13512000Y-8890000I-50000J0D01*
G01*
X13512000Y-9144000D02*
G75*
G03*
X13512000Y-9144000I-50000J0D01*
G01*
X13512000Y-9398000D02*
G75*
G03*
X13512000Y-9398000I-50000J0D01*
G01*
X13512000Y-9652000D02*
G75*
G03*
X13512000Y-9652000I-50000J0D01*
G01*
X13512000Y-9906000D02*
G75*
G03*
X13512000Y-9906000I-50000J0D01*
G01*
X13512000Y-10160000D02*
G75*
G03*
X13512000Y-10160000I-50000J0D01*
G01*
X13512000Y-10414000D02*
G75*
G03*
X13512000Y-10414000I-50000J0D01*
G01*
X13512000Y-10668000D02*
G75*
G03*
X13512000Y-10668000I-50000J0D01*
G01*
X13512000Y-10922000D02*
G75*
G03*
X13512000Y-10922000I-50000J0D01*
G01*
X13512000Y-11176000D02*
G75*
G03*
X13512000Y-11176000I-50000J0D01*
G01*
X13512000Y-11430000D02*
G75*
G03*
X13512000Y-11430000I-50000J0D01*
G01*
X13512000Y-11684000D02*
G75*
G03*
X13512000Y-11684000I-50000J0D01*
G01*
X13512000Y-11938000D02*
G75*
G03*
X13512000Y-11938000I-50000J0D01*
G01*
X13512000Y-12192000D02*
G75*
G03*
X13512000Y-12192000I-50000J0D01*
G01*
X13512000Y-12446000D02*
G75*
G03*
X13512000Y-12446000I-50000J0D01*
G01*
X13512000Y-12700000D02*
G75*
G03*
X13512000Y-12700000I-50000J0D01*
G01*
X13512000Y-12954000D02*
G75*
G03*
X13512000Y-12954000I-50000J0D01*
G01*
X13766000Y-8128000D02*
G75*
G03*
X13766000Y-8128000I-50000J0D01*
G01*
X13766000Y-8382000D02*
G75*
G03*
X13766000Y-8382000I-50000J0D01*
G01*
X13766000Y-8636000D02*
G75*
G03*
X13766000Y-8636000I-50000J0D01*
G01*
X13766000Y-8890000D02*
G75*
G03*
X13766000Y-8890000I-50000J0D01*
G01*
X13766000Y-9144000D02*
G75*
G03*
X13766000Y-9144000I-50000J0D01*
G01*
X13766000Y-9398000D02*
G75*
G03*
X13766000Y-9398000I-50000J0D01*
G01*
X13766000Y-9652000D02*
G75*
G03*
X13766000Y-9652000I-50000J0D01*
G01*
X13766000Y-9906000D02*
G75*
G03*
X13766000Y-9906000I-50000J0D01*
G01*
X13766000Y-10160000D02*
G75*
G03*
X13766000Y-10160000I-50000J0D01*
G01*
X13766000Y-10414000D02*
G75*
G03*
X13766000Y-10414000I-50000J0D01*
G01*
X13766000Y-10668000D02*
G75*
G03*
X13766000Y-10668000I-50000J0D01*
G01*
X13766000Y-10922000D02*
G75*
G03*
X13766000Y-10922000I-50000J0D01*
G01*
X13766000Y-11176000D02*
G75*
G03*
X13766000Y-11176000I-50000J0D01*
G01*
X13766000Y-11430000D02*
G75*
G03*
X13766000Y-11430000I-50000J0D01*
G01*
X13766000Y-11684000D02*
G75*
G03*
X13766000Y-11684000I-50000J0D01*
G01*
X13766000Y-11938000D02*
G75*
G03*
X13766000Y-11938000I-50000J0D01*
G01*
X13766000Y-12192000D02*
G75*
G03*
X13766000Y-12192000I-50000J0D01*
G01*
X13766000Y-12446000D02*
G75*
G03*
X13766000Y-12446000I-50000J0D01*
G01*
X13766000Y-12700000D02*
G75*
G03*
X13766000Y-12700000I-50000J0D01*
G01*
X13766000Y-12954000D02*
G75*
G03*
X13766000Y-12954000I-50000J0D01*
G01*
X14337500Y-9842500D02*
G75*
G03*
X14337500Y-9842500I-50000J0D01*
G01*
X14337500Y-10096500D02*
G75*
G03*
X14337500Y-10096500I-50000J0D01*
G01*
X14337500Y-10350500D02*
G75*
G03*
X14337500Y-10350500I-50000J0D01*
G01*
X14337500Y-10604500D02*
G75*
G03*
X14337500Y-10604500I-50000J0D01*
G01*
X14591500Y-5588000D02*
G75*
G03*
X14591500Y-5588000I-50000J0D01*
G01*
X14845500Y-5588000D02*
G75*
G03*
X14845500Y-5588000I-50000J0D01*
G01*
X15099500Y-5588000D02*
G75*
G03*
X15099500Y-5588000I-50000J0D01*
G01*
X15163000Y-6540500D02*
G75*
G03*
X15163000Y-6540500I-50000J0D01*
G01*
X15163000Y-6794500D02*
G75*
G03*
X15163000Y-6794500I-50000J0D01*
G01*
X15163000Y-7048500D02*
G75*
G03*
X15163000Y-7048500I-50000J0D01*
G01*
X15480500Y-12636500D02*
G75*
G03*
X15480500Y-12636500I-50000J0D01*
G01*
X15480500Y-12890500D02*
G75*
G03*
X15480500Y-12890500I-50000J0D01*
G01*
X15734500Y-12636500D02*
G75*
G03*
X15734500Y-12636500I-50000J0D01*
G01*
X15734500Y-12890500D02*
G75*
G03*
X15734500Y-12890500I-50000J0D01*
G01*
X15988500Y-12636500D02*
G75*
G03*
X15988500Y-12636500I-50000J0D01*
G01*
X15988500Y-12890500D02*
G75*
G03*
X15988500Y-12890500I-50000J0D01*
G01*
X16052000Y-5588000D02*
G75*
G03*
X16052000Y-5588000I-50000J0D01*
G01*
X16242500Y-12636500D02*
G75*
G03*
X16242500Y-12636500I-50000J0D01*
G01*
X16242500Y-12890500D02*
G75*
G03*
X16242500Y-12890500I-50000J0D01*
G01*
X16306000Y-5588000D02*
G75*
G03*
X16306000Y-5588000I-50000J0D01*
G01*
X16496500Y-6350000D02*
G75*
G03*
X16496500Y-6350000I-50000J0D01*
G01*
X16496500Y-6604000D02*
G75*
G03*
X16496500Y-6604000I-50000J0D01*
G01*
X16496500Y-6858000D02*
G75*
G03*
X16496500Y-6858000I-50000J0D01*
G01*
X16496500Y-7112000D02*
G75*
G03*
X16496500Y-7112000I-50000J0D01*
G01*
X16496500Y-7366000D02*
G75*
G03*
X16496500Y-7366000I-50000J0D01*
G01*
X16496500Y-7620000D02*
G75*
G03*
X16496500Y-7620000I-50000J0D01*
G01*
X16496500Y-12636500D02*
G75*
G03*
X16496500Y-12636500I-50000J0D01*
G01*
X16496500Y-12890500D02*
G75*
G03*
X16496500Y-12890500I-50000J0D01*
G01*
X16750500Y-12636500D02*
G75*
G03*
X16750500Y-12636500I-50000J0D01*
G01*
X16750500Y-12890500D02*
G75*
G03*
X16750500Y-12890500I-50000J0D01*
G01*
X17258500Y-12636500D02*
G75*
G03*
X17258500Y-12636500I-50000J0D01*
G01*
X17258500Y-12890500D02*
G75*
G03*
X17258500Y-12890500I-50000J0D01*
G01*
X17766500Y-12636500D02*
G75*
G03*
X17766500Y-12636500I-50000J0D01*
G01*
X17766500Y-12890500D02*
G75*
G03*
X17766500Y-12890500I-50000J0D01*
G01*
X18020500Y-12636500D02*
G75*
G03*
X18020500Y-12636500I-50000J0D01*
G01*
X18020500Y-12890500D02*
G75*
G03*
X18020500Y-12890500I-50000J0D01*
G01*
X18274500Y-12636500D02*
G75*
G03*
X18274500Y-12636500I-50000J0D01*
G01*
X18274500Y-12890500D02*
G75*
G03*
X18274500Y-12890500I-50000J0D01*
G01*
X18401500Y-7874000D02*
G75*
G03*
X18401500Y-7874000I-50000J0D01*
G01*
X18528500Y-12636500D02*
G75*
G03*
X18528500Y-12636500I-50000J0D01*
G01*
X18528500Y-12890500D02*
G75*
G03*
X18528500Y-12890500I-50000J0D01*
G01*
X18655500Y-7874000D02*
G75*
G03*
X18655500Y-7874000I-50000J0D01*
G01*
X18782500Y-10287000D02*
G75*
G03*
X18782500Y-10287000I-50000J0D01*
G01*
X18782500Y-12636500D02*
G75*
G03*
X18782500Y-12636500I-50000J0D01*
G01*
X18782500Y-12890500D02*
G75*
G03*
X18782500Y-12890500I-50000J0D01*
G01*
X18909500Y-7874000D02*
G75*
G03*
X18909500Y-7874000I-50000J0D01*
G01*
X19036500Y-10287000D02*
G75*
G03*
X19036500Y-10287000I-50000J0D01*
G01*
X19036500Y-12636500D02*
G75*
G03*
X19036500Y-12636500I-50000J0D01*
G01*
X19036500Y-12890500D02*
G75*
G03*
X19036500Y-12890500I-50000J0D01*
G01*
X19036500Y-13398500D02*
G75*
G03*
X19036500Y-13398500I-50000J0D01*
G01*
X19163500Y-7874000D02*
G75*
G03*
X19163500Y-7874000I-50000J0D01*
G01*
X19417500Y-7874000D02*
G75*
G03*
X19417500Y-7874000I-50000J0D01*
G01*
X19671500Y-7874000D02*
G75*
G03*
X19671500Y-7874000I-50000J0D01*
G01*
X19711500Y-8509000D02*
G75*
G03*
X19711500Y-8509000I-50000J0D01*
G01*
X19711500Y-8763000D02*
G75*
G03*
X19711500Y-8763000I-50000J0D01*
G01*
X19711500Y-9017000D02*
G75*
G03*
X19711500Y-9017000I-50000J0D01*
G01*
X19711500Y-9271000D02*
G75*
G03*
X19711500Y-9271000I-50000J0D01*
G01*
X19711500Y-9525000D02*
G75*
G03*
X19711500Y-9525000I-50000J0D01*
G01*
X19711500Y-9779000D02*
G75*
G03*
X19711500Y-9779000I-50000J0D01*
G01*
X19711500Y-10287000D02*
G75*
G03*
X19711500Y-10287000I-50000J0D01*
G01*
X19711500Y-10795000D02*
G75*
G03*
X19711500Y-10795000I-50000J0D01*
G01*
X19711500Y-11049000D02*
G75*
G03*
X19711500Y-11049000I-50000J0D01*
G01*
X19711500Y-11303000D02*
G75*
G03*
X19711500Y-11303000I-50000J0D01*
G01*
X19711500Y-11557000D02*
G75*
G03*
X19711500Y-11557000I-50000J0D01*
G01*
X19711500Y-11811000D02*
G75*
G03*
X19711500Y-11811000I-50000J0D01*
G01*
X19711500Y-12065000D02*
G75*
G03*
X19711500Y-12065000I-50000J0D01*
G01*
X19965500Y-8509000D02*
G75*
G03*
X19965500Y-8509000I-50000J0D01*
G01*
X19965500Y-8763000D02*
G75*
G03*
X19965500Y-8763000I-50000J0D01*
G01*
X19965500Y-9017000D02*
G75*
G03*
X19965500Y-9017000I-50000J0D01*
G01*
X19965500Y-9271000D02*
G75*
G03*
X19965500Y-9271000I-50000J0D01*
G01*
X19965500Y-9525000D02*
G75*
G03*
X19965500Y-9525000I-50000J0D01*
G01*
X19965500Y-9779000D02*
G75*
G03*
X19965500Y-9779000I-50000J0D01*
G01*
X19965500Y-10287000D02*
G75*
G03*
X19965500Y-10287000I-50000J0D01*
G01*
X19965500Y-10795000D02*
G75*
G03*
X19965500Y-10795000I-50000J0D01*
G01*
X19965500Y-11049000D02*
G75*
G03*
X19965500Y-11049000I-50000J0D01*
G01*
X19965500Y-11303000D02*
G75*
G03*
X19965500Y-11303000I-50000J0D01*
G01*
X19965500Y-11557000D02*
G75*
G03*
X19965500Y-11557000I-50000J0D01*
G01*
X19965500Y-11811000D02*
G75*
G03*
X19965500Y-11811000I-50000J0D01*
G01*
X19965500Y-12065000D02*
G75*
G03*
X19965500Y-12065000I-50000J0D01*
G01*
X20686720Y-6540500D02*
G75*
G03*
X20686720Y-6540500I-50000J0D01*
G01*
X20686720Y-6794500D02*
G75*
G03*
X20686720Y-6794500I-50000J0D01*
G01*
X20686720Y-7048500D02*
G75*
G03*
X20686720Y-7048500I-50000J0D01*
G01*
X20686720Y-7302500D02*
G75*
G03*
X20686720Y-7302500I-50000J0D01*
G01*
X20686720Y-7556500D02*
G75*
G03*
X20686720Y-7556500I-50000J0D01*
G01*
X20687500Y-12763500D02*
G75*
G03*
X20687500Y-12763500I-50000J0D01*
G01*
X20687500Y-13017500D02*
G75*
G03*
X20687500Y-13017500I-50000J0D01*
G01*
X20687500Y-13271500D02*
G75*
G03*
X20687500Y-13271500I-50000J0D01*
G01*
D14*
X17192900Y-4925500D02*
X17192900Y-5035500D01*
X17137900Y-4980500D02*
X17247900Y-4980500D01*
X17192900Y-5575500D02*
X17192900Y-5685500D01*
X17137900Y-5630500D02*
X17247900Y-5630500D01*
X17192900Y-6676000D02*
X17192900Y-6786000D01*
X17137900Y-6731000D02*
X17247900Y-6731000D01*
X17192900Y-7326000D02*
X17192900Y-7436000D01*
X17137900Y-7381000D02*
X17247900Y-7381000D01*
X17642900Y-4925500D02*
X17642900Y-5035500D01*
X17587900Y-4980500D02*
X17697900Y-4980500D01*
X17642900Y-5575500D02*
X17642900Y-5685500D01*
X17587900Y-5630500D02*
X17697900Y-5630500D01*
X17642900Y-6676000D02*
X17642900Y-6786000D01*
X17587900Y-6731000D02*
X17697900Y-6731000D01*
X17642900Y-7326000D02*
X17642900Y-7436000D01*
X17587900Y-7381000D02*
X17697900Y-7381000D01*
D11*
X11130119Y-14806851D02*
X11130119Y-14606851D01*
X11177738Y-14606851D01*
X11206309Y-14616375D01*
X11225357Y-14635423D01*
X11234881Y-14654470D01*
X11244405Y-14692565D01*
X11244405Y-14721137D01*
X11234881Y-14759232D01*
X11225357Y-14778280D01*
X11206309Y-14797327D01*
X11177738Y-14806851D01*
X11130119Y-14806851D01*
X11330119Y-14806851D02*
X11330119Y-14673518D01*
X11330119Y-14711613D02*
X11339643Y-14692565D01*
X11349167Y-14683042D01*
X11368214Y-14673518D01*
X11387262Y-14673518D01*
X11453928Y-14806851D02*
X11453928Y-14673518D01*
X11453928Y-14606851D02*
X11444405Y-14616375D01*
X11453928Y-14625899D01*
X11463452Y-14616375D01*
X11453928Y-14606851D01*
X11453928Y-14625899D01*
X11577738Y-14806851D02*
X11558690Y-14797327D01*
X11549167Y-14778280D01*
X11549167Y-14606851D01*
X11682500Y-14806851D02*
X11663452Y-14797327D01*
X11653928Y-14778280D01*
X11653928Y-14606851D01*
X11911071Y-14806851D02*
X11911071Y-14606851D01*
X11977738Y-14749708D01*
X12044405Y-14606851D01*
X12044405Y-14806851D01*
X12225357Y-14806851D02*
X12225357Y-14702089D01*
X12215833Y-14683042D01*
X12196786Y-14673518D01*
X12158690Y-14673518D01*
X12139643Y-14683042D01*
X12225357Y-14797327D02*
X12206309Y-14806851D01*
X12158690Y-14806851D01*
X12139643Y-14797327D01*
X12130119Y-14778280D01*
X12130119Y-14759232D01*
X12139643Y-14740184D01*
X12158690Y-14730661D01*
X12206309Y-14730661D01*
X12225357Y-14721137D01*
X12320595Y-14673518D02*
X12320595Y-14873518D01*
X12320595Y-14683042D02*
X12339643Y-14673518D01*
X12377738Y-14673518D01*
X12396786Y-14683042D01*
X12406309Y-14692565D01*
X12415833Y-14711613D01*
X12415833Y-14768756D01*
X12406309Y-14787803D01*
X12396786Y-14797327D01*
X12377738Y-14806851D01*
X12339643Y-14806851D01*
X12320595Y-14797327D01*
X12501548Y-14787803D02*
X12511071Y-14797327D01*
X12501548Y-14806851D01*
X12492024Y-14797327D01*
X12501548Y-14787803D01*
X12501548Y-14806851D01*
X12501548Y-14683042D02*
X12511071Y-14692565D01*
X12501548Y-14702089D01*
X12492024Y-14692565D01*
X12501548Y-14683042D01*
X12501548Y-14702089D01*
D12*
X10832500Y-15116375D02*
X10872500Y-15156375D01*
X10872500Y-15116375D02*
X10832500Y-15156375D01*
D11*
X11168214Y-15026851D02*
X11187262Y-15026851D01*
X11206309Y-15036375D01*
X11215833Y-15045899D01*
X11225357Y-15064946D01*
X11234881Y-15103042D01*
X11234881Y-15150661D01*
X11225357Y-15188756D01*
X11215833Y-15207803D01*
X11206309Y-15217327D01*
X11187262Y-15226851D01*
X11168214Y-15226851D01*
X11149167Y-15217327D01*
X11139643Y-15207803D01*
X11130119Y-15188756D01*
X11120595Y-15150661D01*
X11120595Y-15103042D01*
X11130119Y-15064946D01*
X11139643Y-15045899D01*
X11149167Y-15036375D01*
X11168214Y-15026851D01*
X11320595Y-15207803D02*
X11330119Y-15217327D01*
X11320595Y-15226851D01*
X11311071Y-15217327D01*
X11320595Y-15207803D01*
X11320595Y-15226851D01*
X11501548Y-15093518D02*
X11501548Y-15226851D01*
X11453928Y-15017327D02*
X11406309Y-15160184D01*
X11530119Y-15160184D01*
X11644405Y-15026851D02*
X11663452Y-15026851D01*
X11682500Y-15036375D01*
X11692024Y-15045899D01*
X11701548Y-15064946D01*
X11711071Y-15103042D01*
X11711071Y-15150661D01*
X11701548Y-15188756D01*
X11692024Y-15207803D01*
X11682500Y-15217327D01*
X11663452Y-15226851D01*
X11644405Y-15226851D01*
X11625357Y-15217327D01*
X11615833Y-15207803D01*
X11606309Y-15188756D01*
X11596786Y-15150661D01*
X11596786Y-15103042D01*
X11606309Y-15064946D01*
X11615833Y-15045899D01*
X11625357Y-15036375D01*
X11644405Y-15026851D01*
X11834881Y-15026851D02*
X11853928Y-15026851D01*
X11872976Y-15036375D01*
X11882500Y-15045899D01*
X11892024Y-15064946D01*
X11901548Y-15103042D01*
X11901548Y-15150661D01*
X11892024Y-15188756D01*
X11882500Y-15207803D01*
X11872976Y-15217327D01*
X11853928Y-15226851D01*
X11834881Y-15226851D01*
X11815833Y-15217327D01*
X11806309Y-15207803D01*
X11796786Y-15188756D01*
X11787262Y-15150661D01*
X11787262Y-15103042D01*
X11796786Y-15064946D01*
X11806309Y-15045899D01*
X11815833Y-15036375D01*
X11834881Y-15026851D01*
X11987262Y-15226851D02*
X11987262Y-15093518D01*
X11987262Y-15112565D02*
X11996786Y-15103042D01*
X12015833Y-15093518D01*
X12044405Y-15093518D01*
X12063452Y-15103042D01*
X12072976Y-15122089D01*
X12072976Y-15226851D01*
X12072976Y-15122089D02*
X12082500Y-15103042D01*
X12101548Y-15093518D01*
X12130119Y-15093518D01*
X12149167Y-15103042D01*
X12158690Y-15122089D01*
X12158690Y-15226851D01*
X12253928Y-15226851D02*
X12253928Y-15093518D01*
X12253928Y-15112565D02*
X12263452Y-15103042D01*
X12282500Y-15093518D01*
X12311071Y-15093518D01*
X12330119Y-15103042D01*
X12339643Y-15122089D01*
X12339643Y-15226851D01*
X12339643Y-15122089D02*
X12349167Y-15103042D01*
X12368214Y-15093518D01*
X12396786Y-15093518D01*
X12415833Y-15103042D01*
X12425357Y-15122089D01*
X12425357Y-15226851D01*
X12815833Y-15017327D02*
X12644405Y-15274470D01*
X13072976Y-15026851D02*
X13092024Y-15026851D01*
X13111071Y-15036375D01*
X13120595Y-15045899D01*
X13130119Y-15064946D01*
X13139643Y-15103042D01*
X13139643Y-15150661D01*
X13130119Y-15188756D01*
X13120595Y-15207803D01*
X13111071Y-15217327D01*
X13092024Y-15226851D01*
X13072976Y-15226851D01*
X13053928Y-15217327D01*
X13044405Y-15207803D01*
X13034881Y-15188756D01*
X13025357Y-15150661D01*
X13025357Y-15103042D01*
X13034881Y-15064946D01*
X13044405Y-15045899D01*
X13053928Y-15036375D01*
X13072976Y-15026851D01*
X13225357Y-15207803D02*
X13234881Y-15217327D01*
X13225357Y-15226851D01*
X13215833Y-15217327D01*
X13225357Y-15207803D01*
X13225357Y-15226851D01*
X13358690Y-15026851D02*
X13377738Y-15026851D01*
X13396786Y-15036375D01*
X13406309Y-15045899D01*
X13415833Y-15064946D01*
X13425357Y-15103042D01*
X13425357Y-15150661D01*
X13415833Y-15188756D01*
X13406309Y-15207803D01*
X13396786Y-15217327D01*
X13377738Y-15226851D01*
X13358690Y-15226851D01*
X13339643Y-15217327D01*
X13330119Y-15207803D01*
X13320595Y-15188756D01*
X13311071Y-15150661D01*
X13311071Y-15103042D01*
X13320595Y-15064946D01*
X13330119Y-15045899D01*
X13339643Y-15036375D01*
X13358690Y-15026851D01*
X13615833Y-15226851D02*
X13501548Y-15226851D01*
X13558690Y-15226851D02*
X13558690Y-15026851D01*
X13539643Y-15055423D01*
X13520595Y-15074470D01*
X13501548Y-15083994D01*
X13796786Y-15026851D02*
X13701548Y-15026851D01*
X13692024Y-15122089D01*
X13701548Y-15112565D01*
X13720595Y-15103042D01*
X13768214Y-15103042D01*
X13787262Y-15112565D01*
X13796786Y-15122089D01*
X13806309Y-15141137D01*
X13806309Y-15188756D01*
X13796786Y-15207803D01*
X13787262Y-15217327D01*
X13768214Y-15226851D01*
X13720595Y-15226851D01*
X13701548Y-15217327D01*
X13692024Y-15207803D01*
X13872976Y-15026851D02*
X14006309Y-15026851D01*
X13920595Y-15226851D01*
X14072976Y-15026851D02*
X14072976Y-15064946D01*
X14149167Y-15026851D02*
X14149167Y-15064946D01*
X14444405Y-15303042D02*
X14434881Y-15293518D01*
X14415833Y-15264946D01*
X14406309Y-15245899D01*
X14396786Y-15217327D01*
X14387262Y-15169708D01*
X14387262Y-15131613D01*
X14396786Y-15083994D01*
X14406309Y-15055423D01*
X14415833Y-15036375D01*
X14434881Y-15007803D01*
X14444405Y-14998280D01*
X14501548Y-15026851D02*
X14625357Y-15026851D01*
X14558690Y-15103042D01*
X14587262Y-15103042D01*
X14606309Y-15112565D01*
X14615833Y-15122089D01*
X14625357Y-15141137D01*
X14625357Y-15188756D01*
X14615833Y-15207803D01*
X14606309Y-15217327D01*
X14587262Y-15226851D01*
X14530119Y-15226851D01*
X14511071Y-15217327D01*
X14501548Y-15207803D01*
X14806309Y-15026851D02*
X14711071Y-15026851D01*
X14701548Y-15122089D01*
X14711071Y-15112565D01*
X14730119Y-15103042D01*
X14777738Y-15103042D01*
X14796786Y-15112565D01*
X14806309Y-15122089D01*
X14815833Y-15141137D01*
X14815833Y-15188756D01*
X14806309Y-15207803D01*
X14796786Y-15217327D01*
X14777738Y-15226851D01*
X14730119Y-15226851D01*
X14711071Y-15217327D01*
X14701548Y-15207803D01*
X15053928Y-15226851D02*
X15053928Y-15026851D01*
X15139643Y-15226851D02*
X15139643Y-15122089D01*
X15130119Y-15103042D01*
X15111071Y-15093518D01*
X15082500Y-15093518D01*
X15063452Y-15103042D01*
X15053928Y-15112565D01*
X15263452Y-15226851D02*
X15244405Y-15217327D01*
X15234881Y-15207803D01*
X15225357Y-15188756D01*
X15225357Y-15131613D01*
X15234881Y-15112565D01*
X15244405Y-15103042D01*
X15263452Y-15093518D01*
X15292024Y-15093518D01*
X15311071Y-15103042D01*
X15320595Y-15112565D01*
X15330119Y-15131613D01*
X15330119Y-15188756D01*
X15320595Y-15207803D01*
X15311071Y-15217327D01*
X15292024Y-15226851D01*
X15263452Y-15226851D01*
X15444405Y-15226851D02*
X15425357Y-15217327D01*
X15415833Y-15198280D01*
X15415833Y-15026851D01*
X15596786Y-15217327D02*
X15577738Y-15226851D01*
X15539643Y-15226851D01*
X15520595Y-15217327D01*
X15511071Y-15198280D01*
X15511071Y-15122089D01*
X15520595Y-15103042D01*
X15539643Y-15093518D01*
X15577738Y-15093518D01*
X15596786Y-15103042D01*
X15606309Y-15122089D01*
X15606309Y-15141137D01*
X15511071Y-15160184D01*
X15682500Y-15217327D02*
X15701548Y-15226851D01*
X15739643Y-15226851D01*
X15758690Y-15217327D01*
X15768214Y-15198280D01*
X15768214Y-15188756D01*
X15758690Y-15169708D01*
X15739643Y-15160184D01*
X15711071Y-15160184D01*
X15692024Y-15150661D01*
X15682500Y-15131613D01*
X15682500Y-15122089D01*
X15692024Y-15103042D01*
X15711071Y-15093518D01*
X15739643Y-15093518D01*
X15758690Y-15103042D01*
X15834881Y-15303042D02*
X15844405Y-15293518D01*
X15863452Y-15264946D01*
X15872976Y-15245899D01*
X15882500Y-15217327D01*
X15892024Y-15169708D01*
X15892024Y-15131613D01*
X15882500Y-15083994D01*
X15872976Y-15055423D01*
X15863452Y-15036375D01*
X15844405Y-15007803D01*
X15834881Y-14998280D01*
D13*
X10872500Y-15400375D02*
G75*
G03*
X10872500Y-15400375I-50000J0D01*
G01*
D11*
X11234881Y-15490851D02*
X11120595Y-15490851D01*
X11177738Y-15490851D02*
X11177738Y-15290851D01*
X11158690Y-15319423D01*
X11139643Y-15338470D01*
X11120595Y-15347994D01*
X11320595Y-15471803D02*
X11330119Y-15481327D01*
X11320595Y-15490851D01*
X11311071Y-15481327D01*
X11320595Y-15471803D01*
X11320595Y-15490851D01*
X11453928Y-15290851D02*
X11472976Y-15290851D01*
X11492024Y-15300375D01*
X11501548Y-15309899D01*
X11511071Y-15328946D01*
X11520595Y-15367042D01*
X11520595Y-15414661D01*
X11511071Y-15452756D01*
X11501548Y-15471803D01*
X11492024Y-15481327D01*
X11472976Y-15490851D01*
X11453928Y-15490851D01*
X11434881Y-15481327D01*
X11425357Y-15471803D01*
X11415833Y-15452756D01*
X11406309Y-15414661D01*
X11406309Y-15367042D01*
X11415833Y-15328946D01*
X11425357Y-15309899D01*
X11434881Y-15300375D01*
X11453928Y-15290851D01*
X11644405Y-15290851D02*
X11663452Y-15290851D01*
X11682500Y-15300375D01*
X11692024Y-15309899D01*
X11701548Y-15328946D01*
X11711071Y-15367042D01*
X11711071Y-15414661D01*
X11701548Y-15452756D01*
X11692024Y-15471803D01*
X11682500Y-15481327D01*
X11663452Y-15490851D01*
X11644405Y-15490851D01*
X11625357Y-15481327D01*
X11615833Y-15471803D01*
X11606309Y-15452756D01*
X11596786Y-15414661D01*
X11596786Y-15367042D01*
X11606309Y-15328946D01*
X11615833Y-15309899D01*
X11625357Y-15300375D01*
X11644405Y-15290851D01*
X11834881Y-15290851D02*
X11853928Y-15290851D01*
X11872976Y-15300375D01*
X11882500Y-15309899D01*
X11892024Y-15328946D01*
X11901548Y-15367042D01*
X11901548Y-15414661D01*
X11892024Y-15452756D01*
X11882500Y-15471803D01*
X11872976Y-15481327D01*
X11853928Y-15490851D01*
X11834881Y-15490851D01*
X11815833Y-15481327D01*
X11806309Y-15471803D01*
X11796786Y-15452756D01*
X11787262Y-15414661D01*
X11787262Y-15367042D01*
X11796786Y-15328946D01*
X11806309Y-15309899D01*
X11815833Y-15300375D01*
X11834881Y-15290851D01*
X11987262Y-15490851D02*
X11987262Y-15357518D01*
X11987262Y-15376565D02*
X11996786Y-15367042D01*
X12015833Y-15357518D01*
X12044405Y-15357518D01*
X12063452Y-15367042D01*
X12072976Y-15386089D01*
X12072976Y-15490851D01*
X12072976Y-15386089D02*
X12082500Y-15367042D01*
X12101548Y-15357518D01*
X12130119Y-15357518D01*
X12149167Y-15367042D01*
X12158690Y-15386089D01*
X12158690Y-15490851D01*
X12253928Y-15490851D02*
X12253928Y-15357518D01*
X12253928Y-15376565D02*
X12263452Y-15367042D01*
X12282500Y-15357518D01*
X12311071Y-15357518D01*
X12330119Y-15367042D01*
X12339643Y-15386089D01*
X12339643Y-15490851D01*
X12339643Y-15386089D02*
X12349167Y-15367042D01*
X12368214Y-15357518D01*
X12396786Y-15357518D01*
X12415833Y-15367042D01*
X12425357Y-15386089D01*
X12425357Y-15490851D01*
X12815833Y-15281327D02*
X12644405Y-15538470D01*
X13072976Y-15290851D02*
X13092024Y-15290851D01*
X13111071Y-15300375D01*
X13120595Y-15309899D01*
X13130119Y-15328946D01*
X13139643Y-15367042D01*
X13139643Y-15414661D01*
X13130119Y-15452756D01*
X13120595Y-15471803D01*
X13111071Y-15481327D01*
X13092024Y-15490851D01*
X13072976Y-15490851D01*
X13053928Y-15481327D01*
X13044405Y-15471803D01*
X13034881Y-15452756D01*
X13025357Y-15414661D01*
X13025357Y-15367042D01*
X13034881Y-15328946D01*
X13044405Y-15309899D01*
X13053928Y-15300375D01*
X13072976Y-15290851D01*
X13225357Y-15471803D02*
X13234881Y-15481327D01*
X13225357Y-15490851D01*
X13215833Y-15481327D01*
X13225357Y-15471803D01*
X13225357Y-15490851D01*
X13358690Y-15290851D02*
X13377738Y-15290851D01*
X13396786Y-15300375D01*
X13406309Y-15309899D01*
X13415833Y-15328946D01*
X13425357Y-15367042D01*
X13425357Y-15414661D01*
X13415833Y-15452756D01*
X13406309Y-15471803D01*
X13396786Y-15481327D01*
X13377738Y-15490851D01*
X13358690Y-15490851D01*
X13339643Y-15481327D01*
X13330119Y-15471803D01*
X13320595Y-15452756D01*
X13311071Y-15414661D01*
X13311071Y-15367042D01*
X13320595Y-15328946D01*
X13330119Y-15309899D01*
X13339643Y-15300375D01*
X13358690Y-15290851D01*
X13492024Y-15290851D02*
X13615833Y-15290851D01*
X13549167Y-15367042D01*
X13577738Y-15367042D01*
X13596786Y-15376565D01*
X13606309Y-15386089D01*
X13615833Y-15405137D01*
X13615833Y-15452756D01*
X13606309Y-15471803D01*
X13596786Y-15481327D01*
X13577738Y-15490851D01*
X13520595Y-15490851D01*
X13501548Y-15481327D01*
X13492024Y-15471803D01*
X13711071Y-15490851D02*
X13749167Y-15490851D01*
X13768214Y-15481327D01*
X13777738Y-15471803D01*
X13796786Y-15443232D01*
X13806309Y-15405137D01*
X13806309Y-15328946D01*
X13796786Y-15309899D01*
X13787262Y-15300375D01*
X13768214Y-15290851D01*
X13730119Y-15290851D01*
X13711071Y-15300375D01*
X13701548Y-15309899D01*
X13692024Y-15328946D01*
X13692024Y-15376565D01*
X13701548Y-15395613D01*
X13711071Y-15405137D01*
X13730119Y-15414661D01*
X13768214Y-15414661D01*
X13787262Y-15405137D01*
X13796786Y-15395613D01*
X13806309Y-15376565D01*
X13977738Y-15357518D02*
X13977738Y-15490851D01*
X13930119Y-15281327D02*
X13882500Y-15424184D01*
X14006309Y-15424184D01*
X14072976Y-15290851D02*
X14072976Y-15328946D01*
X14149167Y-15290851D02*
X14149167Y-15328946D01*
X14444405Y-15567042D02*
X14434881Y-15557518D01*
X14415833Y-15528946D01*
X14406309Y-15509899D01*
X14396786Y-15481327D01*
X14387262Y-15433708D01*
X14387262Y-15395613D01*
X14396786Y-15347994D01*
X14406309Y-15319423D01*
X14415833Y-15300375D01*
X14434881Y-15271803D01*
X14444405Y-15262280D01*
X14625357Y-15490851D02*
X14511071Y-15490851D01*
X14568214Y-15490851D02*
X14568214Y-15290851D01*
X14549167Y-15319423D01*
X14530119Y-15338470D01*
X14511071Y-15347994D01*
X14796786Y-15357518D02*
X14796786Y-15490851D01*
X14749167Y-15281327D02*
X14701548Y-15424184D01*
X14825357Y-15424184D01*
X14930119Y-15376565D02*
X14911071Y-15367042D01*
X14901548Y-15357518D01*
X14892024Y-15338470D01*
X14892024Y-15328946D01*
X14901548Y-15309899D01*
X14911071Y-15300375D01*
X14930119Y-15290851D01*
X14968214Y-15290851D01*
X14987262Y-15300375D01*
X14996786Y-15309899D01*
X15006309Y-15328946D01*
X15006309Y-15338470D01*
X14996786Y-15357518D01*
X14987262Y-15367042D01*
X14968214Y-15376565D01*
X14930119Y-15376565D01*
X14911071Y-15386089D01*
X14901548Y-15395613D01*
X14892024Y-15414661D01*
X14892024Y-15452756D01*
X14901548Y-15471803D01*
X14911071Y-15481327D01*
X14930119Y-15490851D01*
X14968214Y-15490851D01*
X14987262Y-15481327D01*
X14996786Y-15471803D01*
X15006309Y-15452756D01*
X15006309Y-15414661D01*
X14996786Y-15395613D01*
X14987262Y-15386089D01*
X14968214Y-15376565D01*
X15244405Y-15490851D02*
X15244405Y-15290851D01*
X15330119Y-15490851D02*
X15330119Y-15386089D01*
X15320595Y-15367042D01*
X15301548Y-15357518D01*
X15272976Y-15357518D01*
X15253928Y-15367042D01*
X15244405Y-15376565D01*
X15453928Y-15490851D02*
X15434881Y-15481327D01*
X15425357Y-15471803D01*
X15415833Y-15452756D01*
X15415833Y-15395613D01*
X15425357Y-15376565D01*
X15434881Y-15367042D01*
X15453928Y-15357518D01*
X15482500Y-15357518D01*
X15501548Y-15367042D01*
X15511071Y-15376565D01*
X15520595Y-15395613D01*
X15520595Y-15452756D01*
X15511071Y-15471803D01*
X15501548Y-15481327D01*
X15482500Y-15490851D01*
X15453928Y-15490851D01*
X15634881Y-15490851D02*
X15615833Y-15481327D01*
X15606309Y-15462280D01*
X15606309Y-15290851D01*
X15787262Y-15481327D02*
X15768214Y-15490851D01*
X15730119Y-15490851D01*
X15711071Y-15481327D01*
X15701548Y-15462280D01*
X15701548Y-15386089D01*
X15711071Y-15367042D01*
X15730119Y-15357518D01*
X15768214Y-15357518D01*
X15787262Y-15367042D01*
X15796786Y-15386089D01*
X15796786Y-15405137D01*
X15701548Y-15424184D01*
X15872976Y-15481327D02*
X15892024Y-15490851D01*
X15930119Y-15490851D01*
X15949167Y-15481327D01*
X15958690Y-15462280D01*
X15958690Y-15452756D01*
X15949167Y-15433708D01*
X15930119Y-15424184D01*
X15901548Y-15424184D01*
X15882500Y-15414661D01*
X15872976Y-15395613D01*
X15872976Y-15386089D01*
X15882500Y-15367042D01*
X15901548Y-15357518D01*
X15930119Y-15357518D01*
X15949167Y-15367042D01*
X16025357Y-15567042D02*
X16034881Y-15557518D01*
X16053928Y-15528946D01*
X16063452Y-15509899D01*
X16072976Y-15481327D01*
X16082500Y-15433708D01*
X16082500Y-15395613D01*
X16072976Y-15347994D01*
X16063452Y-15319423D01*
X16053928Y-15300375D01*
X16034881Y-15271803D01*
X16025357Y-15262280D01*
D14*
X10817500Y-15609375D02*
X10817500Y-15719375D01*
X10762500Y-15664375D02*
X10872500Y-15664375D01*
D11*
X11234881Y-15754851D02*
X11120595Y-15754851D01*
X11177738Y-15754851D02*
X11177738Y-15554851D01*
X11158690Y-15583423D01*
X11139643Y-15602470D01*
X11120595Y-15611994D01*
X11320595Y-15735803D02*
X11330119Y-15745327D01*
X11320595Y-15754851D01*
X11311071Y-15745327D01*
X11320595Y-15735803D01*
X11320595Y-15754851D01*
X11520595Y-15754851D02*
X11406309Y-15754851D01*
X11463452Y-15754851D02*
X11463452Y-15554851D01*
X11444405Y-15583423D01*
X11425357Y-15602470D01*
X11406309Y-15611994D01*
X11644405Y-15554851D02*
X11663452Y-15554851D01*
X11682500Y-15564375D01*
X11692024Y-15573899D01*
X11701548Y-15592946D01*
X11711071Y-15631042D01*
X11711071Y-15678661D01*
X11701548Y-15716756D01*
X11692024Y-15735803D01*
X11682500Y-15745327D01*
X11663452Y-15754851D01*
X11644405Y-15754851D01*
X11625357Y-15745327D01*
X11615833Y-15735803D01*
X11606309Y-15716756D01*
X11596786Y-15678661D01*
X11596786Y-15631042D01*
X11606309Y-15592946D01*
X11615833Y-15573899D01*
X11625357Y-15564375D01*
X11644405Y-15554851D01*
X11834881Y-15554851D02*
X11853928Y-15554851D01*
X11872976Y-15564375D01*
X11882500Y-15573899D01*
X11892024Y-15592946D01*
X11901548Y-15631042D01*
X11901548Y-15678661D01*
X11892024Y-15716756D01*
X11882500Y-15735803D01*
X11872976Y-15745327D01*
X11853928Y-15754851D01*
X11834881Y-15754851D01*
X11815833Y-15745327D01*
X11806309Y-15735803D01*
X11796786Y-15716756D01*
X11787262Y-15678661D01*
X11787262Y-15631042D01*
X11796786Y-15592946D01*
X11806309Y-15573899D01*
X11815833Y-15564375D01*
X11834881Y-15554851D01*
X11987262Y-15754851D02*
X11987262Y-15621518D01*
X11987262Y-15640565D02*
X11996786Y-15631042D01*
X12015833Y-15621518D01*
X12044405Y-15621518D01*
X12063452Y-15631042D01*
X12072976Y-15650089D01*
X12072976Y-15754851D01*
X12072976Y-15650089D02*
X12082500Y-15631042D01*
X12101548Y-15621518D01*
X12130119Y-15621518D01*
X12149167Y-15631042D01*
X12158690Y-15650089D01*
X12158690Y-15754851D01*
X12253928Y-15754851D02*
X12253928Y-15621518D01*
X12253928Y-15640565D02*
X12263452Y-15631042D01*
X12282500Y-15621518D01*
X12311071Y-15621518D01*
X12330119Y-15631042D01*
X12339643Y-15650089D01*
X12339643Y-15754851D01*
X12339643Y-15650089D02*
X12349167Y-15631042D01*
X12368214Y-15621518D01*
X12396786Y-15621518D01*
X12415833Y-15631042D01*
X12425357Y-15650089D01*
X12425357Y-15754851D01*
X12815833Y-15545327D02*
X12644405Y-15802470D01*
X13072976Y-15554851D02*
X13092024Y-15554851D01*
X13111071Y-15564375D01*
X13120595Y-15573899D01*
X13130119Y-15592946D01*
X13139643Y-15631042D01*
X13139643Y-15678661D01*
X13130119Y-15716756D01*
X13120595Y-15735803D01*
X13111071Y-15745327D01*
X13092024Y-15754851D01*
X13072976Y-15754851D01*
X13053928Y-15745327D01*
X13044405Y-15735803D01*
X13034881Y-15716756D01*
X13025357Y-15678661D01*
X13025357Y-15631042D01*
X13034881Y-15592946D01*
X13044405Y-15573899D01*
X13053928Y-15564375D01*
X13072976Y-15554851D01*
X13225357Y-15735803D02*
X13234881Y-15745327D01*
X13225357Y-15754851D01*
X13215833Y-15745327D01*
X13225357Y-15735803D01*
X13225357Y-15754851D01*
X13358690Y-15554851D02*
X13377738Y-15554851D01*
X13396786Y-15564375D01*
X13406309Y-15573899D01*
X13415833Y-15592946D01*
X13425357Y-15631042D01*
X13425357Y-15678661D01*
X13415833Y-15716756D01*
X13406309Y-15735803D01*
X13396786Y-15745327D01*
X13377738Y-15754851D01*
X13358690Y-15754851D01*
X13339643Y-15745327D01*
X13330119Y-15735803D01*
X13320595Y-15716756D01*
X13311071Y-15678661D01*
X13311071Y-15631042D01*
X13320595Y-15592946D01*
X13330119Y-15573899D01*
X13339643Y-15564375D01*
X13358690Y-15554851D01*
X13596786Y-15621518D02*
X13596786Y-15754851D01*
X13549167Y-15545327D02*
X13501548Y-15688184D01*
X13625357Y-15688184D01*
X13682500Y-15554851D02*
X13806309Y-15554851D01*
X13739643Y-15631042D01*
X13768214Y-15631042D01*
X13787262Y-15640565D01*
X13796786Y-15650089D01*
X13806309Y-15669137D01*
X13806309Y-15716756D01*
X13796786Y-15735803D01*
X13787262Y-15745327D01*
X13768214Y-15754851D01*
X13711071Y-15754851D01*
X13692024Y-15745327D01*
X13682500Y-15735803D01*
X13872976Y-15554851D02*
X13996786Y-15554851D01*
X13930119Y-15631042D01*
X13958690Y-15631042D01*
X13977738Y-15640565D01*
X13987262Y-15650089D01*
X13996786Y-15669137D01*
X13996786Y-15716756D01*
X13987262Y-15735803D01*
X13977738Y-15745327D01*
X13958690Y-15754851D01*
X13901548Y-15754851D01*
X13882500Y-15745327D01*
X13872976Y-15735803D01*
X14072976Y-15554851D02*
X14072976Y-15592946D01*
X14149167Y-15554851D02*
X14149167Y-15592946D01*
X14444405Y-15831042D02*
X14434881Y-15821518D01*
X14415833Y-15792946D01*
X14406309Y-15773899D01*
X14396786Y-15745327D01*
X14387262Y-15697708D01*
X14387262Y-15659613D01*
X14396786Y-15611994D01*
X14406309Y-15583423D01*
X14415833Y-15564375D01*
X14434881Y-15535803D01*
X14444405Y-15526280D01*
X14549167Y-15640565D02*
X14530119Y-15631042D01*
X14520595Y-15621518D01*
X14511071Y-15602470D01*
X14511071Y-15592946D01*
X14520595Y-15573899D01*
X14530119Y-15564375D01*
X14549167Y-15554851D01*
X14587262Y-15554851D01*
X14606309Y-15564375D01*
X14615833Y-15573899D01*
X14625357Y-15592946D01*
X14625357Y-15602470D01*
X14615833Y-15621518D01*
X14606309Y-15631042D01*
X14587262Y-15640565D01*
X14549167Y-15640565D01*
X14530119Y-15650089D01*
X14520595Y-15659613D01*
X14511071Y-15678661D01*
X14511071Y-15716756D01*
X14520595Y-15735803D01*
X14530119Y-15745327D01*
X14549167Y-15754851D01*
X14587262Y-15754851D01*
X14606309Y-15745327D01*
X14615833Y-15735803D01*
X14625357Y-15716756D01*
X14625357Y-15678661D01*
X14615833Y-15659613D01*
X14606309Y-15650089D01*
X14587262Y-15640565D01*
X14863452Y-15754851D02*
X14863452Y-15554851D01*
X14949167Y-15754851D02*
X14949167Y-15650089D01*
X14939643Y-15631042D01*
X14920595Y-15621518D01*
X14892024Y-15621518D01*
X14872976Y-15631042D01*
X14863452Y-15640565D01*
X15072976Y-15754851D02*
X15053928Y-15745327D01*
X15044405Y-15735803D01*
X15034881Y-15716756D01*
X15034881Y-15659613D01*
X15044405Y-15640565D01*
X15053928Y-15631042D01*
X15072976Y-15621518D01*
X15101548Y-15621518D01*
X15120595Y-15631042D01*
X15130119Y-15640565D01*
X15139643Y-15659613D01*
X15139643Y-15716756D01*
X15130119Y-15735803D01*
X15120595Y-15745327D01*
X15101548Y-15754851D01*
X15072976Y-15754851D01*
X15253928Y-15754851D02*
X15234881Y-15745327D01*
X15225357Y-15726280D01*
X15225357Y-15554851D01*
X15406309Y-15745327D02*
X15387262Y-15754851D01*
X15349167Y-15754851D01*
X15330119Y-15745327D01*
X15320595Y-15726280D01*
X15320595Y-15650089D01*
X15330119Y-15631042D01*
X15349167Y-15621518D01*
X15387262Y-15621518D01*
X15406309Y-15631042D01*
X15415833Y-15650089D01*
X15415833Y-15669137D01*
X15320595Y-15688184D01*
X15492024Y-15745327D02*
X15511071Y-15754851D01*
X15549167Y-15754851D01*
X15568214Y-15745327D01*
X15577738Y-15726280D01*
X15577738Y-15716756D01*
X15568214Y-15697708D01*
X15549167Y-15688184D01*
X15520595Y-15688184D01*
X15501548Y-15678661D01*
X15492024Y-15659613D01*
X15492024Y-15650089D01*
X15501548Y-15631042D01*
X15520595Y-15621518D01*
X15549167Y-15621518D01*
X15568214Y-15631042D01*
X15644405Y-15831042D02*
X15653928Y-15821518D01*
X15672976Y-15792946D01*
X15682500Y-15773899D01*
X15692024Y-15745327D01*
X15701548Y-15697708D01*
X15701548Y-15659613D01*
X15692024Y-15611994D01*
X15682500Y-15583423D01*
X15672976Y-15564375D01*
X15653928Y-15535803D01*
X15644405Y-15526280D01*
M02*
