%TF.GenerationSoftware,KiCad,Pcbnew,6.0.0-d3dd2cf0fa~116~ubuntu20.04.1*%
%TF.CreationDate,2022-02-26T00:19:13+01:00*%
%TF.ProjectId,addon-edge-rpi-i2s-pmod,6164646f-6e2d-4656-9467-652d7270692d,0.6*%
%TF.SameCoordinates,Original*%
%TF.FileFunction,Soldermask,Top*%
%TF.FilePolarity,Negative*%
%FSLAX46Y46*%
G04 Gerber Fmt 4.6, Leading zero omitted, Abs format (unit mm)*
G04 Created by KiCad (PCBNEW 6.0.0-d3dd2cf0fa~116~ubuntu20.04.1) date 2022-02-26 00:19:13*
%MOMM*%
%LPD*%
G01*
G04 APERTURE LIST*
G04 Aperture macros list*
%AMRoundRect*
0 Rectangle with rounded corners*
0 $1 Rounding radius*
0 $2 $3 $4 $5 $6 $7 $8 $9 X,Y pos of 4 corners*
0 Add a 4 corners polygon primitive as box body*
4,1,4,$2,$3,$4,$5,$6,$7,$8,$9,$2,$3,0*
0 Add four circle primitives for the rounded corners*
1,1,$1+$1,$2,$3*
1,1,$1+$1,$4,$5*
1,1,$1+$1,$6,$7*
1,1,$1+$1,$8,$9*
0 Add four rect primitives between the rounded corners*
20,1,$1+$1,$2,$3,$4,$5,0*
20,1,$1+$1,$4,$5,$6,$7,0*
20,1,$1+$1,$6,$7,$8,$9,0*
20,1,$1+$1,$8,$9,$2,$3,0*%
G04 Aperture macros list end*
%ADD10R,1.700000X1.700000*%
%ADD11O,1.700000X1.700000*%
%ADD12C,3.200000*%
%ADD13RoundRect,0.101600X-0.762000X-2.540000X0.762000X-2.540000X0.762000X2.540000X-0.762000X2.540000X0*%
%ADD14C,2.000000*%
%ADD15RoundRect,0.250000X-0.400000X-0.625000X0.400000X-0.625000X0.400000X0.625000X-0.400000X0.625000X0*%
G04 APERTURE END LIST*
D10*
%TO.C,JP5*%
X187325000Y-102870000D03*
D11*
X189865000Y-102870000D03*
%TD*%
D10*
%TO.C,JP22*%
X125730000Y-83820000D03*
D11*
X128270000Y-83820000D03*
X130810000Y-83820000D03*
%TD*%
%TO.C,J13*%
X189865000Y-133985000D03*
%TD*%
D12*
%TO.C,H2*%
X112400000Y-88900000D03*
%TD*%
D13*
%TO.C,EDGE1*%
X124460000Y-142240000D03*
X127000000Y-142240000D03*
X129540000Y-142240000D03*
X132080000Y-142240000D03*
X137160000Y-142240000D03*
X139700000Y-142240000D03*
X142240000Y-142240000D03*
X144780000Y-142240000D03*
X147320000Y-142240000D03*
X149860000Y-142240000D03*
X152400000Y-142240000D03*
X154940000Y-142240000D03*
X157480000Y-142240000D03*
X160020000Y-142240000D03*
X162560000Y-142240000D03*
X165100000Y-142240000D03*
X167640000Y-142240000D03*
X170180000Y-142240000D03*
X172720000Y-142240000D03*
X175260000Y-142240000D03*
X177800000Y-142240000D03*
X180340000Y-142240000D03*
X182880000Y-142240000D03*
X185420000Y-142240000D03*
X187960000Y-142240000D03*
X190500000Y-142240000D03*
X193040000Y-142240000D03*
%TD*%
D14*
%TO.C,BUT1*%
X176429000Y-56305000D03*
X176429000Y-49805000D03*
X171929000Y-56305000D03*
X171929000Y-49805000D03*
%TD*%
D10*
%TO.C,JP45*%
X119945000Y-99300000D03*
D11*
X119945000Y-96760000D03*
X119945000Y-94220000D03*
%TD*%
D10*
%TO.C,J12*%
X196215000Y-102870000D03*
D11*
X198755000Y-102870000D03*
%TD*%
D10*
%TO.C,JP12*%
X160020000Y-55880000D03*
D11*
X162560000Y-55880000D03*
%TD*%
D10*
%TO.C,J6*%
X196215000Y-78740000D03*
D11*
X193675000Y-78740000D03*
X191135000Y-78740000D03*
X188595000Y-78740000D03*
X186055000Y-78740000D03*
X183515000Y-78740000D03*
%TD*%
D15*
%TO.C,R1*%
X172644000Y-61235000D03*
X175744000Y-61235000D03*
%TD*%
D14*
%TO.C,BUT2*%
X176429000Y-73810000D03*
X176429000Y-67310000D03*
X171929000Y-67310000D03*
X171929000Y-73810000D03*
%TD*%
D10*
%TO.C,JP43*%
X119945000Y-117580000D03*
D11*
X119945000Y-115040000D03*
X119945000Y-112500000D03*
%TD*%
D10*
%TO.C,JP44*%
X119945000Y-108440000D03*
D11*
X119945000Y-105900000D03*
X119945000Y-103360000D03*
%TD*%
D10*
%TO.C,J1*%
X154305000Y-128905000D03*
D11*
X156845000Y-128905000D03*
X159385000Y-128905000D03*
X161925000Y-128905000D03*
X164465000Y-128905000D03*
X167005000Y-128905000D03*
X154305000Y-126365000D03*
X156845000Y-126365000D03*
X159385000Y-126365000D03*
X161925000Y-126365000D03*
X164465000Y-126365000D03*
X167005000Y-126365000D03*
%TD*%
D10*
%TO.C,J2*%
X177165000Y-128885000D03*
D11*
X179705000Y-128885000D03*
X182245000Y-128885000D03*
X184785000Y-128885000D03*
X187325000Y-128885000D03*
X189865000Y-128885000D03*
X177165000Y-126345000D03*
X179705000Y-126345000D03*
X182245000Y-126345000D03*
X184785000Y-126345000D03*
X187325000Y-126345000D03*
X189865000Y-126345000D03*
%TD*%
D10*
%TO.C,J5*%
X164465000Y-76200000D03*
D11*
X164465000Y-73660000D03*
X164465000Y-71120000D03*
X164465000Y-68580000D03*
X164465000Y-66040000D03*
X164465000Y-63500000D03*
%TD*%
D10*
%TO.C,J10*%
X172060000Y-128885000D03*
D11*
X172060000Y-126345000D03*
%TD*%
D10*
%TO.C,J7*%
X206375000Y-132715000D03*
D11*
X206375000Y-130175000D03*
X206375000Y-127635000D03*
%TD*%
D10*
%TO.C,RPI1*%
X134620000Y-129540000D03*
D11*
X137160000Y-129540000D03*
X134620000Y-127000000D03*
X137160000Y-127000000D03*
X134620000Y-124460000D03*
X137160000Y-124460000D03*
X134620000Y-121920000D03*
X137160000Y-121920000D03*
X134620000Y-119380000D03*
X137160000Y-119380000D03*
X134620000Y-116840000D03*
X137160000Y-116840000D03*
X134620000Y-114300000D03*
X137160000Y-114300000D03*
X134620000Y-111760000D03*
X137160000Y-111760000D03*
X134620000Y-109220000D03*
X137160000Y-109220000D03*
X134620000Y-106680000D03*
X137160000Y-106680000D03*
X134620000Y-104140000D03*
X137160000Y-104140000D03*
X134620000Y-101600000D03*
X137160000Y-101600000D03*
X134620000Y-99060000D03*
X137160000Y-99060000D03*
X134620000Y-96520000D03*
X137160000Y-96520000D03*
X134620000Y-93980000D03*
X137160000Y-93980000D03*
X134620000Y-91440000D03*
X137160000Y-91440000D03*
X134620000Y-88900000D03*
X137160000Y-88900000D03*
X134620000Y-86360000D03*
X137160000Y-86360000D03*
X134620000Y-83820000D03*
X137160000Y-83820000D03*
X134620000Y-81280000D03*
X137160000Y-81280000D03*
%TD*%
D12*
%TO.C,H1*%
X205105000Y-48895000D03*
%TD*%
D10*
%TO.C,JP42*%
X119945000Y-126720000D03*
D11*
X119945000Y-124180000D03*
X119945000Y-121640000D03*
%TD*%
D12*
%TO.C,H3*%
X205100000Y-141300000D03*
%TD*%
D15*
%TO.C,R2*%
X172694000Y-78740000D03*
X175794000Y-78740000D03*
%TD*%
D10*
%TO.C,J9*%
X206367200Y-65405000D03*
D11*
X206367200Y-67945000D03*
X206367200Y-70485000D03*
X206367200Y-73025000D03*
X206367200Y-75565000D03*
%TD*%
D12*
%TO.C,H4*%
X112400000Y-141300000D03*
%TD*%
D10*
%TO.C,JP23*%
X151130000Y-70485000D03*
D11*
X151130000Y-67945000D03*
X151130000Y-65405000D03*
%TD*%
D10*
%TO.C,JP21*%
X115570000Y-83820000D03*
D11*
X118110000Y-83820000D03*
X120650000Y-83820000D03*
%TD*%
D10*
%TO.C,J4*%
X196215000Y-85090000D03*
D11*
X196215000Y-87630000D03*
X196215000Y-90170000D03*
X196215000Y-92710000D03*
X196215000Y-95250000D03*
X196215000Y-97790000D03*
X198755000Y-85090000D03*
X198755000Y-87630000D03*
X198755000Y-90170000D03*
X198755000Y-92710000D03*
X198755000Y-95250000D03*
X198755000Y-97790000D03*
%TD*%
D10*
%TO.C,J8*%
X142875000Y-106045000D03*
D11*
X142875000Y-103505000D03*
X142875000Y-100965000D03*
X142875000Y-98425000D03*
%TD*%
D10*
%TO.C,J3*%
X196215000Y-107950000D03*
D11*
X196215000Y-110490000D03*
X196215000Y-113030000D03*
X196215000Y-115570000D03*
X196215000Y-118110000D03*
X196215000Y-120650000D03*
X198755000Y-107950000D03*
X198755000Y-110490000D03*
X198755000Y-113030000D03*
X198755000Y-115570000D03*
X198755000Y-118110000D03*
X198755000Y-120650000D03*
%TD*%
D10*
%TO.C,JP11*%
X145415000Y-55880000D03*
D11*
X147955000Y-55880000D03*
X150495000Y-55880000D03*
%TD*%
D10*
%TO.C,JP41*%
X119945000Y-135845000D03*
D11*
X119945000Y-133305000D03*
X119945000Y-130765000D03*
%TD*%
M02*
