M48
; DRILL file {KiCad 6.0.0-d3dd2cf0fa~116~ubuntu20.04.1} date Mon 28 Feb 2022 23:19:28 CET
; FORMAT={-:-/ absolute / metric / decimal}
; #@! TF.CreationDate,2022-02-28T23:19:28+01:00
; #@! TF.GenerationSoftware,Kicad,Pcbnew,6.0.0-d3dd2cf0fa~116~ubuntu20.04.1
; #@! TF.FileFunction,Plated,1,2,PTH
FMAT,2
METRIC
; #@! TA.AperFunction,Plated,PTH,ViaDrill
T1C0.400
; #@! TA.AperFunction,Plated,PTH,ComponentDrill
T2C1.000
; #@! TA.AperFunction,Plated,PTH,ComponentDrill
T3C1.100
%
G90
G05
T1
X118.11Y-92.075
X124.714Y-107.95
X126.873Y-109.982
X127.127Y-111.633
X127.381Y-134.747
X127.787Y-136.22
X127.787Y-137.223
X128.27Y-78.012
X129.286Y-137.922
X130.175Y-136.144
X136.525Y-137.153
X140.97Y-119.38
X141.605Y-79.564
X143.791Y-128.188
X144.145Y-83.82
X144.519Y-127.178
X148.59Y-88.265
X150.495Y-119.38
X156.01Y-106.48
X160.528Y-123.825
X160.62Y-136.814
X165.735Y-78.74
X167.64Y-113.758
X167.71Y-105.086
X168.021Y-135.001
X169.545Y-83.185
X170.18Y-78.74
X170.434Y-104.394
X170.434Y-114.935
X172.466Y-136.906
X187.198Y-114.808
X188.722Y-124.46
X189.865Y-114.046
X193.294Y-90.533
X199.644Y-127.381
T2
X115.57Y-83.82
X118.11Y-83.82
X119.945Y-94.22
X119.945Y-96.76
X119.945Y-99.3
X119.945Y-103.36
X119.945Y-105.9
X119.945Y-108.44
X119.945Y-112.5
X119.945Y-115.04
X119.945Y-117.58
X119.945Y-121.64
X119.945Y-124.18
X119.945Y-126.72
X119.945Y-130.765
X119.945Y-133.305
X119.945Y-135.845
X120.65Y-83.82
X125.73Y-83.82
X128.27Y-83.82
X130.81Y-83.82
X134.62Y-81.28
X134.62Y-83.82
X134.62Y-86.36
X134.62Y-88.9
X134.62Y-91.44
X134.62Y-93.98
X134.62Y-96.52
X134.62Y-99.06
X134.62Y-101.6
X134.62Y-104.14
X134.62Y-106.68
X134.62Y-109.22
X134.62Y-111.76
X134.62Y-114.3
X134.62Y-116.84
X134.62Y-119.38
X134.62Y-121.92
X134.62Y-124.46
X134.62Y-127.0
X134.62Y-129.54
X137.16Y-81.28
X137.16Y-83.82
X137.16Y-86.36
X137.16Y-88.9
X137.16Y-91.44
X137.16Y-93.98
X137.16Y-96.52
X137.16Y-99.06
X137.16Y-101.6
X137.16Y-104.14
X137.16Y-106.68
X137.16Y-109.22
X137.16Y-111.76
X137.16Y-114.3
X137.16Y-116.84
X137.16Y-119.38
X137.16Y-121.92
X137.16Y-124.46
X137.16Y-127.0
X137.16Y-129.54
X142.875Y-98.425
X142.875Y-100.965
X142.875Y-103.505
X142.875Y-106.045
X145.415Y-55.88
X147.955Y-55.88
X150.495Y-55.88
X151.13Y-65.405
X151.13Y-67.945
X151.13Y-70.485
X154.305Y-126.365
X154.305Y-128.905
X156.845Y-126.365
X156.845Y-128.905
X159.385Y-126.365
X159.385Y-128.905
X160.02Y-55.88
X161.925Y-126.365
X161.925Y-128.905
X162.56Y-55.88
X164.465Y-63.5
X164.465Y-66.04
X164.465Y-68.58
X164.465Y-71.12
X164.465Y-73.66
X164.465Y-76.2
X164.465Y-126.365
X164.465Y-128.905
X167.005Y-126.365
X167.005Y-128.905
X172.06Y-126.345
X172.06Y-128.885
X177.165Y-126.345
X177.165Y-128.885
X179.705Y-126.345
X179.705Y-128.885
X182.245Y-126.345
X182.245Y-128.885
X183.515Y-78.74
X184.785Y-126.345
X184.785Y-128.885
X186.055Y-78.74
X187.325Y-102.87
X187.325Y-126.345
X187.325Y-128.885
X188.595Y-78.74
X189.865Y-102.87
X189.865Y-126.345
X189.865Y-128.885
X189.865Y-133.985
X191.135Y-78.74
X193.675Y-78.74
X196.215Y-78.74
X196.215Y-85.09
X196.215Y-87.63
X196.215Y-90.17
X196.215Y-92.71
X196.215Y-95.25
X196.215Y-97.79
X196.215Y-102.87
X196.215Y-107.95
X196.215Y-110.49
X196.215Y-113.03
X196.215Y-115.57
X196.215Y-118.11
X196.215Y-120.65
X198.755Y-85.09
X198.755Y-87.63
X198.755Y-90.17
X198.755Y-92.71
X198.755Y-95.25
X198.755Y-97.79
X198.755Y-102.87
X198.755Y-107.95
X198.755Y-110.49
X198.755Y-113.03
X198.755Y-115.57
X198.755Y-118.11
X198.755Y-120.65
X206.367Y-65.405
X206.367Y-67.945
X206.367Y-70.485
X206.367Y-73.025
X206.367Y-75.565
X206.375Y-127.635
X206.375Y-130.175
X206.375Y-132.715
T3
X171.929Y-49.805
X171.929Y-56.305
X171.929Y-67.31
X171.929Y-73.81
X176.429Y-49.805
X176.429Y-56.305
X176.429Y-67.31
X176.429Y-73.81
T0
M30
