%TF.GenerationSoftware,KiCad,Pcbnew,6.0.0-d3dd2cf0fa~116~ubuntu20.04.1*%
%TF.CreationDate,2022-02-26T00:19:23+01:00*%
%TF.ProjectId,addon-edge-rpi-i2s-pmod,6164646f-6e2d-4656-9467-652d7270692d,0.6*%
%TF.SameCoordinates,Original*%
%TF.FileFunction,Plated,1,2,PTH,Drill*%
%TF.FilePolarity,Positive*%
%FSLAX46Y46*%
G04 Gerber Fmt 4.6, Leading zero omitted, Abs format (unit mm)*
G04 Created by KiCad (PCBNEW 6.0.0-d3dd2cf0fa~116~ubuntu20.04.1) date 2022-02-26 00:19:23*
%MOMM*%
%LPD*%
G01*
G04 APERTURE LIST*
%TA.AperFunction,ViaDrill*%
%ADD10C,0.400000*%
%TD*%
%TA.AperFunction,ComponentDrill*%
%ADD11C,1.000000*%
%TD*%
%TA.AperFunction,ComponentDrill*%
%ADD12C,1.100000*%
%TD*%
G04 APERTURE END LIST*
D10*
X118110000Y-92075000D03*
X124714000Y-107950000D03*
X126873000Y-109982000D03*
X127127000Y-111633000D03*
X127381000Y-134747000D03*
X127787400Y-136220200D03*
X127787411Y-137222902D03*
X128270000Y-78012300D03*
X129286000Y-137922000D03*
X130175000Y-136144000D03*
X136525000Y-137152780D03*
X140970000Y-119380000D03*
X141605000Y-79564500D03*
X143790828Y-128187557D03*
X144145000Y-83820000D03*
X144518528Y-127177800D03*
X148590000Y-88265000D03*
X150495000Y-119380000D03*
X156010309Y-106480309D03*
X160528000Y-123825000D03*
X160620289Y-136813711D03*
X165735000Y-78740000D03*
X167640000Y-113757700D03*
X167710062Y-105085938D03*
X168021000Y-135001000D03*
X169545000Y-83185000D03*
X170180000Y-78740000D03*
X170434000Y-104394000D03*
X170434000Y-114935000D03*
X172466000Y-136906000D03*
X187198000Y-114808000D03*
X188722000Y-124460000D03*
X189865000Y-114046000D03*
X193294000Y-90533138D03*
X199644000Y-127381000D03*
D11*
%TO.C,JP21*%
X115570000Y-83820000D03*
X118110000Y-83820000D03*
%TO.C,JP45*%
X119945000Y-94220000D03*
X119945000Y-96760000D03*
X119945000Y-99300000D03*
%TO.C,JP44*%
X119945000Y-103360000D03*
X119945000Y-105900000D03*
X119945000Y-108440000D03*
%TO.C,JP43*%
X119945000Y-112500000D03*
X119945000Y-115040000D03*
X119945000Y-117580000D03*
%TO.C,JP42*%
X119945000Y-121640000D03*
X119945000Y-124180000D03*
X119945000Y-126720000D03*
%TO.C,JP41*%
X119945000Y-130765000D03*
X119945000Y-133305000D03*
X119945000Y-135845000D03*
%TO.C,JP21*%
X120650000Y-83820000D03*
%TO.C,JP22*%
X125730000Y-83820000D03*
X128270000Y-83820000D03*
X130810000Y-83820000D03*
%TO.C,RPI1*%
X134620000Y-81280000D03*
X134620000Y-83820000D03*
X134620000Y-86360000D03*
X134620000Y-88900000D03*
X134620000Y-91440000D03*
X134620000Y-93980000D03*
X134620000Y-96520000D03*
X134620000Y-99060000D03*
X134620000Y-101600000D03*
X134620000Y-104140000D03*
X134620000Y-106680000D03*
X134620000Y-109220000D03*
X134620000Y-111760000D03*
X134620000Y-114300000D03*
X134620000Y-116840000D03*
X134620000Y-119380000D03*
X134620000Y-121920000D03*
X134620000Y-124460000D03*
X134620000Y-127000000D03*
X134620000Y-129540000D03*
X137160000Y-81280000D03*
X137160000Y-83820000D03*
X137160000Y-86360000D03*
X137160000Y-88900000D03*
X137160000Y-91440000D03*
X137160000Y-93980000D03*
X137160000Y-96520000D03*
X137160000Y-99060000D03*
X137160000Y-101600000D03*
X137160000Y-104140000D03*
X137160000Y-106680000D03*
X137160000Y-109220000D03*
X137160000Y-111760000D03*
X137160000Y-114300000D03*
X137160000Y-116840000D03*
X137160000Y-119380000D03*
X137160000Y-121920000D03*
X137160000Y-124460000D03*
X137160000Y-127000000D03*
X137160000Y-129540000D03*
%TO.C,J8*%
X142875000Y-98425000D03*
X142875000Y-100965000D03*
X142875000Y-103505000D03*
X142875000Y-106045000D03*
%TO.C,JP11*%
X145415000Y-55880000D03*
X147955000Y-55880000D03*
X150495000Y-55880000D03*
%TO.C,JP23*%
X151130000Y-65405000D03*
X151130000Y-67945000D03*
X151130000Y-70485000D03*
%TO.C,J1*%
X154305000Y-126365000D03*
X154305000Y-128905000D03*
X156845000Y-126365000D03*
X156845000Y-128905000D03*
X159385000Y-126365000D03*
X159385000Y-128905000D03*
%TO.C,JP12*%
X160020000Y-55880000D03*
%TO.C,J1*%
X161925000Y-126365000D03*
X161925000Y-128905000D03*
%TO.C,JP12*%
X162560000Y-55880000D03*
%TO.C,J5*%
X164465000Y-63500000D03*
X164465000Y-66040000D03*
X164465000Y-68580000D03*
X164465000Y-71120000D03*
X164465000Y-73660000D03*
X164465000Y-76200000D03*
%TO.C,J1*%
X164465000Y-126365000D03*
X164465000Y-128905000D03*
X167005000Y-126365000D03*
X167005000Y-128905000D03*
%TO.C,J10*%
X172060000Y-126345000D03*
X172060000Y-128885000D03*
%TO.C,J2*%
X177165000Y-126345000D03*
X177165000Y-128885000D03*
X179705000Y-126345000D03*
X179705000Y-128885000D03*
X182245000Y-126345000D03*
X182245000Y-128885000D03*
%TO.C,J6*%
X183515000Y-78740000D03*
%TO.C,J2*%
X184785000Y-126345000D03*
X184785000Y-128885000D03*
%TO.C,J6*%
X186055000Y-78740000D03*
%TO.C,JP5*%
X187325000Y-102870000D03*
%TO.C,J2*%
X187325000Y-126345000D03*
X187325000Y-128885000D03*
%TO.C,J6*%
X188595000Y-78740000D03*
%TO.C,JP5*%
X189865000Y-102870000D03*
%TO.C,J2*%
X189865000Y-126345000D03*
X189865000Y-128885000D03*
%TO.C,J13*%
X189865000Y-133985000D03*
%TO.C,J6*%
X191135000Y-78740000D03*
X193675000Y-78740000D03*
X196215000Y-78740000D03*
%TO.C,J4*%
X196215000Y-85090000D03*
X196215000Y-87630000D03*
X196215000Y-90170000D03*
X196215000Y-92710000D03*
X196215000Y-95250000D03*
X196215000Y-97790000D03*
%TO.C,J12*%
X196215000Y-102870000D03*
%TO.C,J3*%
X196215000Y-107950000D03*
X196215000Y-110490000D03*
X196215000Y-113030000D03*
X196215000Y-115570000D03*
X196215000Y-118110000D03*
X196215000Y-120650000D03*
%TO.C,J4*%
X198755000Y-85090000D03*
X198755000Y-87630000D03*
X198755000Y-90170000D03*
X198755000Y-92710000D03*
X198755000Y-95250000D03*
X198755000Y-97790000D03*
%TO.C,J12*%
X198755000Y-102870000D03*
%TO.C,J3*%
X198755000Y-107950000D03*
X198755000Y-110490000D03*
X198755000Y-113030000D03*
X198755000Y-115570000D03*
X198755000Y-118110000D03*
X198755000Y-120650000D03*
%TO.C,J9*%
X206367200Y-65405000D03*
X206367200Y-67945000D03*
X206367200Y-70485000D03*
X206367200Y-73025000D03*
X206367200Y-75565000D03*
%TO.C,J7*%
X206375000Y-127635000D03*
X206375000Y-130175000D03*
X206375000Y-132715000D03*
D12*
%TO.C,BUT1*%
X171929000Y-49805000D03*
X171929000Y-56305000D03*
%TO.C,BUT2*%
X171929000Y-67310000D03*
X171929000Y-73810000D03*
%TO.C,BUT1*%
X176429000Y-49805000D03*
X176429000Y-56305000D03*
%TO.C,BUT2*%
X176429000Y-67310000D03*
X176429000Y-73810000D03*
M02*
